<?xml version="1.0" standalone="no"?>
<!DOCTYPE svg PUBLIC "-//W3C//DTD SVG 20010904//EN"
 "http://www.w3.org/TR/2001/REC-SVG-20010904/DTD/svg10.dtd">
<svg version="1.0" xmlns="http://www.w3.org/2000/svg"
 width="700.000000pt" height="700.000000pt" viewBox="0 0 700.000000 700.000000"
 preserveAspectRatio="xMidYMid meet">
<metadata>
Created by potrace 1.11, written by Peter Selinger 2001-2013
</metadata>
<g transform="translate(0.000000,700.000000) scale(0.100000,-0.100000)"
fill="#000000" stroke="none">
<path d="M3462 6850 c-20 -27 -62 -83 -92 -126 -30 -42 -67 -91 -82 -108 -33
-39 -305 -488 -325 -536 -8 -19 -26 -59 -39 -89 -14 -29 -22 -61 -19 -71 8
-24 46 -30 86 -13 17 7 34 12 36 10 2 -2 -2 -18 -8 -36 -18 -51 -6 -169 22
-225 22 -45 50 -72 62 -60 3 3 -8 33 -24 67 -25 53 -29 73 -28 137 3 114 47
189 132 225 41 17 45 39 8 41 -23 1 -66 -29 -111 -79 -17 -20 -38 -30 -69 -34
l-44 -6 6 34 c4 19 27 75 52 125 61 122 278 458 298 462 9 2 28 -8 41 -21 21
-22 23 -29 16 -63 -5 -22 -17 -43 -26 -49 -10 -5 -31 -21 -47 -35 l-29 -26 24
-29 c14 -17 30 -40 37 -53 18 -34 -13 -41 -47 -10 -56 50 -58 51 -81 27 -28
-31 -29 -93 0 -112 48 -34 179 34 179 92 0 14 -7 35 -15 45 -17 22 -20 56 -6
56 15 0 61 102 61 135 0 20 -11 43 -30 65 -16 19 -29 42 -30 51 0 19 105 180
126 192 8 5 40 15 72 23 31 8 64 21 72 29 12 13 4 15 -64 14 l-77 -1 -37 -48z
m-207 -610 c-5 -8 -11 -8 -17 -2 -6 6 -7 16 -3 22 5 8 11 8 17 2 6 -6 7 -16 3
-22z"/>
<path d="M3665 6823 c7 -90 22 -153 35 -153 6 0 10 11 10 25 0 14 1 25 3 25 1
1 20 3 42 6 62 9 128 41 150 74 11 17 22 30 25 30 11 0 110 -171 110 -191 0
-5 -7 -9 -15 -9 -20 0 -110 -95 -130 -137 -34 -72 -12 -155 53 -190 65 -37
117 -32 216 20 l58 31 19 -23 c29 -36 149 -237 149 -250 0 -11 -55 -28 -72
-23 -5 1 -8 -4 -8 -12 0 -21 39 -46 71 -46 50 0 181 -139 278 -293 33 -54 50
-98 77 -205 20 -76 40 -153 45 -173 5 -20 22 -53 39 -73 20 -26 34 -61 45
-114 35 -165 63 -222 112 -222 26 0 30 17 10 34 -18 14 -44 102 -58 196 -12
84 -19 101 -60 148 -36 40 -37 62 -5 62 31 0 46 41 46 121 0 111 -94 302 -166
337 -57 27 -61 4 -11 -64 76 -101 114 -197 110 -276 -3 -66 -3 -65 -15 -44 -6
11 -20 53 -30 94 -33 128 -98 243 -230 404 -39 47 -58 79 -58 97 0 30 -98 193
-158 262 -21 24 -63 82 -92 129 -29 47 -59 92 -65 100 -6 8 -12 30 -14 48 -2
23 -16 46 -50 80 -26 26 -77 93 -114 150 l-67 102 -90 0 c-78 0 -91 -2 -103
-21 -20 -28 -10 -57 25 -79 27 -16 28 -19 10 -24 -44 -14 -86 35 -72 86 10 33
5 38 -32 38 l-29 0 6 -77z m199 49 c2 -4 -11 -12 -30 -18 -38 -12 -43 -8 -16
12 19 15 39 18 46 6z m228 -304 c16 -13 58 -77 58 -89 0 -3 -21 -6 -47 -7 -39
-2 -53 -7 -75 -31 -31 -34 -28 -62 8 -90 32 -25 30 -35 -3 -26 -39 9 -71 42
-84 85 -13 43 -1 73 54 133 36 39 62 46 89 25z m23 -158 c11 -17 -5 -32 -21
-19 -7 6 -11 15 -8 20 7 12 21 11 29 -1z"/>
<path d="M3385 6800 c-3 -5 -1 -10 4 -10 6 0 11 5 11 10 0 6 -2 10 -4 10 -3 0
-8 -4 -11 -10z"/>
<path d="M3481 6718 c-18 -29 -16 -100 4 -138 17 -33 81 -84 133 -105 17 -8
32 -16 32 -19 0 -15 22 -164 26 -179 3 -9 10 -14 16 -11 6 4 7 27 2 63 -14
107 2 149 74 198 59 40 152 130 152 148 0 16 -22 25 -64 25 -33 0 -121 -47
-177 -95 -17 -14 -34 -25 -38 -25 -4 0 -12 20 -19 44 -14 53 -70 116 -103 116
-14 0 -30 -9 -38 -22z m72 -55 c8 -10 18 -29 21 -43 2 -14 8 -38 11 -55 l7
-30 -30 28 c-17 16 -34 46 -40 67 -13 52 0 66 31 33z m307 -13 c0 -10 -89 -79
-127 -99 -30 -15 -31 6 -3 42 31 39 130 83 130 57z"/>
<path d="M3568 6208 c9 -9 15 -9 24 0 9 9 7 12 -12 12 -19 0 -21 -3 -12 -12z"/>
<path d="M3514 6200 c-26 -10 -40 -30 -22 -30 17 0 55 26 48 33 -3 3 -15 1
-26 -3z"/>
<path d="M3685 6180 c-43 -16 -81 -33 -83 -39 -5 -15 -3 -15 80 13 122 40 241
30 353 -27 42 -22 182 -74 225 -84 l25 -6 -29 25 c-17 16 -46 28 -74 32 -25 3
-53 13 -62 21 -9 8 -36 21 -61 29 -24 8 -71 24 -103 36 -91 33 -175 33 -271 0z"/>
<path d="M3412 6128 c-23 -18 -41 -37 -41 -41 -1 -10 18 1 59 36 47 40 31 44
-18 5z"/>
<path d="M3750 6081 c-42 -9 -204 -89 -275 -136 -74 -50 -195 -173 -216 -221
-25 -55 -29 -109 -9 -109 9 0 21 20 32 54 20 61 44 95 115 164 85 82 174 137
334 205 25 11 60 18 80 16 74 -8 79 -25 13 -42 -52 -14 -123 -60 -124 -79 0
-8 22 -2 58 17 76 41 173 50 257 25 61 -17 158 -75 174 -102 11 -20 45 -13 49
10 8 40 -68 89 -221 142 -53 19 -106 39 -116 45 -26 14 -109 20 -151 11z"/>
<path d="M3268 6002 c-53 -53 -102 -149 -118 -229 -17 -91 -24 -203 -12 -203
17 0 27 40 36 148 8 90 50 182 125 276 30 38 38 56 24 56 -5 -1 -29 -22 -55
-48z"/>
<path d="M2700 5960 c0 -5 3 -10 8 -11 76 -7 121 -36 157 -100 20 -38 26 -64
29 -139 4 -95 10 -115 26 -90 15 23 17 116 5 197 -7 49 -46 92 -119 128 -50
25 -106 33 -106 15z"/>
<path d="M4330 5932 c0 -10 20 -32 44 -49 60 -42 95 -107 152 -278 26 -77 49
-146 51 -152 6 -14 32 -17 50 -5 8 5 7 17 -3 47 -8 22 -30 91 -50 153 -56 183
-100 249 -191 287 -46 19 -53 19 -53 -3z"/>
<path d="M2571 5879 c-33 -13 -21 -21 40 -26 62 -5 177 -60 208 -99 12 -15 21
-37 21 -50 0 -35 18 -38 25 -4 11 48 -21 98 -80 127 -27 14 -63 32 -79 40 -34
18 -102 24 -135 12z"/>
<path d="M3631 5820 c-92 -33 -207 -97 -252 -142 -33 -34 -49 -95 -28 -109 22
-14 23 -12 41 39 15 39 27 54 80 89 65 42 116 65 104 44 -17 -28 -16 -111 2
-111 4 0 18 10 32 23 53 49 170 107 252 126 28 6 40 5 49 -5 8 -10 5 -15 -18
-19 -87 -20 -165 -56 -150 -71 3 -4 42 2 85 13 43 11 96 18 117 16 23 -2 46 2
61 12 31 20 37 19 31 -6 -8 -30 17 -35 79 -15 44 14 61 15 89 6 40 -13 65 -48
65 -89 0 -35 13 -46 39 -32 21 11 36 52 33 91 -1 27 -65 90 -91 90 -9 0 -63
12 -121 26 -151 38 -183 43 -305 49 -103 4 -115 3 -194 -25z m369 -40 c0 -5
-5 -10 -11 -10 -5 0 -7 5 -4 10 3 6 8 10 11 10 2 0 4 -4 4 -10z m-338 -47
c-40 -20 -75 -33 -78 -30 -8 7 116 67 136 66 8 0 -18 -17 -58 -36z"/>
<path d="M2537 5684 c-17 -17 -4 -25 31 -20 35 6 139 -10 209 -32 20 -6 35 -7
38 -1 10 15 -3 26 -48 42 -44 15 -217 23 -230 11z"/>
<path d="M2777 5584 c-1 -1 -24 -5 -51 -9 -48 -5 -94 -23 -68 -26 26 -3 38 -3
77 5 22 4 51 3 64 -2 20 -7 11 -12 -60 -36 -88 -28 -109 -40 -109 -61 0 -9 16
-6 55 10 31 12 58 25 62 29 3 3 27 6 53 6 50 0 65 7 51 24 -5 6 -11 22 -13 36
-2 18 -9 24 -30 25 -15 1 -29 1 -31 -1z"/>
<path d="M2438 5493 c-29 -35 -33 -46 -9 -34 22 12 47 51 33 51 -5 0 -16 -8
-24 -17z"/>
<path d="M4360 5457 c0 -6 15 -50 33 -97 19 -47 37 -101 40 -120 4 -19 26 -74
50 -122 32 -66 46 -87 58 -83 19 6 32 -8 47 -53 22 -65 145 -223 193 -247 31
-17 61 -11 52 10 -4 12 5 11 51 -2 32 -9 66 -13 82 -9 l28 7 -42 37 c-28 25
-58 70 -92 139 -45 89 -54 115 -59 171 0 6 -12 12 -26 12 -14 0 -25 -6 -25
-12 1 -52 68 -216 108 -261 11 -12 12 -21 5 -28 -7 -7 -22 3 -47 32 -59 69
-162 261 -151 279 12 19 -15 80 -36 80 -26 0 -24 -21 6 -115 14 -43 24 -79 22
-82 -2 -2 -16 12 -31 31 -16 22 -36 36 -53 38 -21 2 -33 14 -51 48 -13 25 -25
59 -27 75 -6 71 -53 197 -94 253 -26 33 -41 41 -41 19z m359 -571 c23 -36 25
-46 13 -46 -9 0 -42 54 -42 69 0 18 7 13 29 -23z m72 -103 c13 -16 12 -17 -3
-4 -10 7 -18 15 -18 17 0 8 8 3 21 -13z"/>
<path d="M2533 5413 c-60 -35 -81 -57 -64 -67 4 -3 34 13 66 35 32 21 62 39
66 39 5 0 9 7 9 15 0 22 -8 19 -77 -22z"/>
<path d="M2675 5392 c-164 -71 -365 -253 -365 -330 0 -13 -18 -53 -40 -89 -45
-74 -47 -85 -24 -104 13 -10 17 -10 24 0 4 8 7 21 5 30 -3 16 50 88 95 129 14
13 44 32 68 43 39 17 41 20 30 39 -11 17 -8 24 27 60 22 23 64 53 93 67 47 23
52 28 39 41 -12 11 -21 12 -49 3 -31 -10 -125 -92 -159 -137 -17 -24 -69 -58
-76 -50 -11 10 70 98 131 144 65 48 200 115 254 127 34 7 43 29 16 39 -21 8
-23 8 -69 -12z"/>
<path d="M2367 5275 c-16 -20 -27 -45 -25 -57 3 -17 7 -14 31 22 36 56 32 82
-6 35z"/>
<path d="M2467 5020 c-73 -39 -177 -171 -225 -287 -21 -49 -21 -90 0 -77 5 3
29 47 52 98 48 103 122 191 195 233 59 34 58 33 41 43 -20 13 -20 13 -63 -10z"/>
<path d="M2424 4802 c-49 -49 -103 -104 -121 -123 -17 -19 -50 -51 -72 -72
-46 -43 -51 -57 -20 -57 20 0 69 46 252 237 42 44 77 86 77 92 0 27 -33 5
-116 -77z"/>
<path d="M4566 4871 c-4 -5 10 -45 29 -88 74 -164 145 -283 170 -283 26 0 24
17 -5 45 -29 28 -38 46 -22 44 29 -5 42 3 42 26 0 20 -5 25 -24 25 -32 0 -47
23 -82 124 -21 64 -35 88 -55 100 -31 18 -45 20 -53 7z"/>
<path d="M2564 4822 c-11 -10 -41 -46 -69 -78 -27 -32 -92 -101 -142 -152 -90
-90 -105 -114 -83 -127 19 -12 254 233 315 328 23 36 7 59 -21 29z"/>
<path d="M4518 4723 c5 -10 18 -40 30 -68 12 -27 36 -76 53 -107 17 -32 26
-58 20 -58 -6 0 -17 13 -25 28 -19 37 -99 109 -104 94 -8 -25 145 -212 174
-212 7 0 16 -9 19 -21 6 -18 52 -45 61 -36 3 2 -7 15 -20 30 -16 17 -22 33
-19 50 3 17 -11 58 -41 122 -25 53 -46 102 -46 108 0 14 -83 87 -99 87 -6 0
-7 -7 -3 -17z"/>
<path d="M2468 4553 c-25 -32 -73 -89 -107 -127 -65 -74 -80 -102 -61 -120 13
-12 28 3 128 132 105 135 112 145 112 158 0 29 -29 12 -72 -43z"/>
<path d="M4454 4535 c-7 -18 87 -210 103 -210 42 0 2 -29 -55 -40 -36 -7 -63
-16 -109 -36 -38 -17 -66 -23 -138 -29 -11 -1 -14 -4 -7 -7 6 -2 10 -9 6 -14
-11 -19 -62 -8 -114 26 -67 43 -121 46 -195 11 -59 -27 -151 -107 -161 -139
-3 -12 -17 -36 -30 -54 l-24 -32 -48 21 c-36 16 -72 22 -150 25 -94 2 -108 0
-152 -22 l-50 -25 -26 51 c-32 63 -105 136 -163 162 -58 25 -144 32 -212 17
-30 -7 -78 -14 -107 -16 -63 -5 -94 -20 -147 -74 -22 -22 -43 -40 -47 -40 -5
0 -39 15 -76 34 -37 19 -86 39 -108 45 -22 6 -48 17 -59 24 -18 14 -16 17 32
73 93 110 110 147 79 173 -16 13 -29 1 -41 -39 -12 -39 -54 -97 -91 -125 -19
-14 -34 -32 -34 -40 0 -7 -21 -21 -47 -29 -59 -20 -118 -64 -149 -110 -59 -87
-91 -249 -72 -367 8 -54 45 -160 68 -193 23 -36 233 -250 272 -277 27 -19 27
-19 38 1 14 26 8 35 -65 100 -144 127 -188 182 -228 283 -28 72 -37 110 -37
154 0 133 32 231 99 302 81 87 134 81 160 -16 13 -47 39 -58 48 -22 5 19 11
21 51 15 64 -9 126 -45 130 -76 1 -14 -8 -59 -21 -100 -29 -94 -27 -138 13
-222 35 -76 70 -109 152 -144 180 -76 348 -51 476 70 45 42 102 143 102 181 0
55 154 128 291 139 31 2 60 1 65 -2 6 -4 10 -41 10 -82 -1 -134 58 -230 173
-284 38 -17 65 -21 151 -21 97 0 110 2 165 30 33 17 85 55 116 86 48 48 59 66
74 122 24 87 17 196 -15 250 -21 35 -21 39 -6 62 24 36 160 124 173 112 2 -3
-2 -18 -10 -34 -38 -73 -68 -242 -49 -272 14 -20 48 -5 59 27 29 80 43 132 43
153 1 65 35 101 97 101 101 0 152 -170 91 -302 -27 -58 -88 -138 -203 -264
-81 -89 -125 -152 -125 -176 0 -9 -6 -36 -14 -61 -7 -24 -28 -93 -45 -154 -18
-60 -41 -137 -51 -170 -11 -33 -27 -91 -35 -130 -9 -38 -23 -85 -31 -103 -8
-18 -35 -89 -60 -159 -24 -70 -56 -145 -71 -168 -37 -57 -195 -210 -256 -249
-68 -43 -188 -102 -224 -110 -15 -4 -39 -9 -53 -12 -51 -10 -179 -12 -221 -3
-122 27 -275 136 -346 246 -18 29 -38 53 -44 53 -16 0 -137 129 -178 190 -111
165 -223 467 -245 661 -4 30 -9 70 -11 89 -3 19 -7 55 -10 80 -3 25 -10 79
-15 120 -14 115 -21 181 -35 360 -9 105 -16 131 -33 128 -18 -4 -21 -44 -9
-148 3 -30 9 -91 12 -135 6 -78 10 -104 19 -155 8 -39 15 -107 21 -195 4 -68
12 -129 30 -240 15 -97 93 -338 142 -443 28 -60 125 -200 200 -290 39 -46 75
-100 81 -119 6 -20 11 -107 11 -194 0 -178 -1 -182 -69 -193 -89 -14 -168 -69
-243 -168 -114 -151 -136 -183 -137 -194 -1 -37 -169 -195 -261 -244 -129 -70
-366 -208 -418 -243 -44 -30 -178 -99 -217 -111 -17 -5 -22 -3 -20 11 1 15 -7
18 -45 18 -45 1 -47 -1 -78 -50 -45 -69 -111 -183 -111 -189 0 -3 -11 -29 -23
-58 -54 -121 -81 -222 -92 -343 -4 -38 -13 -95 -20 -125 -25 -101 -26 -110 -5
-110 24 0 26 5 34 65 4 28 9 59 11 70 3 11 7 38 10 60 25 185 58 291 148 473
46 92 77 127 77 87 0 -23 32 -18 84 15 26 17 75 44 109 61 34 18 80 44 102 59
42 29 353 210 360 210 13 0 168 98 240 152 27 21 55 38 61 38 17 0 24 -25 24
-81 0 -79 40 -165 156 -336 115 -167 176 -240 246 -290 66 -46 91 -36 138 58
16 31 35 79 41 105 7 27 21 69 32 93 l19 44 22 -28 c24 -30 57 -35 105 -15 29
11 62 62 56 84 -2 6 -6 23 -9 37 -6 30 -57 59 -100 59 -14 0 -26 2 -26 5 0 18
36 75 48 75 8 0 31 -17 51 -38 33 -33 41 -52 69 -162 18 -69 39 -159 46 -200
58 -307 99 -470 121 -470 20 0 45 40 45 72 0 35 31 88 102 171 94 110 125 164
169 296 69 212 89 241 203 305 35 20 88 55 117 79 30 24 117 88 194 142 77 54
145 104 150 109 28 28 75 107 75 125 0 12 5 21 11 21 20 0 99 -52 111 -73 19
-37 1 -152 -41 -251 -21 -50 -44 -107 -51 -126 -13 -34 -52 -92 -161 -245 -28
-38 -74 -105 -102 -147 -29 -43 -57 -78 -63 -78 -5 0 -18 24 -28 52 -10 29
-40 98 -67 153 -26 55 -51 113 -55 128 -7 31 -40 49 -65 36 -13 -6 -14 -17 -5
-68 9 -54 7 -68 -18 -143 -29 -90 -73 -165 -172 -300 -69 -92 -116 -181 -154
-290 -13 -38 -27 -68 -30 -68 -4 0 -11 14 -16 31 -11 39 -54 74 -80 65 -11 -4
-35 -27 -54 -53 -78 -104 -20 -194 86 -131 l36 21 -7 -31 c-6 -29 -4 -32 18
-32 26 0 46 35 62 109 15 70 116 276 174 356 25 33 69 93 98 133 32 44 65 103
81 148 15 41 30 74 35 74 9 0 33 -53 78 -168 35 -92 53 -108 104 -88 19 8 38
27 52 55 29 58 69 116 115 170 21 24 38 49 38 56 0 6 10 20 21 31 65 58 136
192 199 376 46 132 48 136 66 120 36 -32 109 -88 179 -137 88 -61 379 -287
383 -297 2 -4 9 -8 17 -8 21 0 139 -92 188 -148 41 -46 47 -59 48 -100 3 -96
8 -441 8 -559 l1 -123 34 0 34 0 -3 82 c-13 288 -15 472 -6 463 5 -6 28 -82
49 -170 37 -148 45 -189 58 -285 3 -19 6 -44 9 -55 2 -11 4 -23 4 -27 1 -5 13
-8 27 -8 l27 0 -7 78 c-10 115 -104 502 -137 564 -5 9 -11 36 -14 59 -8 57
-18 73 -78 118 -29 21 -65 51 -82 66 -16 15 -64 52 -105 83 -472 351 -499 373
-586 467 -48 53 -106 110 -129 125 -22 16 -69 56 -105 89 -36 34 -88 72 -116
87 -57 28 -153 56 -166 48 -20 -13 -4 -36 40 -58 155 -81 187 -128 143 -212
-13 -24 -40 -58 -60 -75 -97 -82 -140 -115 -191 -148 -30 -20 -81 -57 -113
-83 -32 -26 -99 -72 -150 -102 -51 -30 -102 -65 -114 -78 -34 -37 -62 -106
-93 -231 -31 -129 -61 -188 -143 -282 -29 -33 -64 -76 -78 -95 -15 -19 -30
-32 -34 -28 -8 7 -42 145 -51 208 -11 69 -43 216 -64 290 -12 41 -26 92 -31
114 -23 93 -61 128 -182 170 -155 54 -237 100 -309 173 -74 75 -97 120 -91
173 4 36 48 177 61 195 7 11 79 55 89 55 11 0 -8 -62 -43 -139 -34 -75 -39
-111 -15 -111 18 0 60 84 95 191 37 112 42 144 52 314 3 61 7 111 9 113 1 1
34 -24 73 -57 143 -120 206 -140 432 -142 117 0 123 1 285 83 110 56 128 69
228 165 60 59 67 63 68 42 10 -302 35 -414 120 -545 62 -94 149 -184 175 -180
35 5 25 34 -35 97 -33 35 -61 68 -61 72 0 4 -20 43 -45 85 -71 124 -104 308
-80 452 18 109 26 143 35 155 11 14 57 152 65 193 6 37 60 226 105 367 15 50
42 140 60 200 17 61 35 122 40 137 11 33 99 154 184 252 119 135 159 205 177
302 24 131 2 176 -162 326 -24 22 -43 48 -136 187 -53 81 -77 98 -89 66z
m-374 -350 c5 -14 16 -28 24 -31 9 -3 18 -14 21 -24 4 -13 13 -17 28 -14 30 5
57 -4 57 -21 0 -28 24 -65 42 -65 28 0 55 -34 63 -79 8 -46 0 -67 -19 -52 -6
5 -32 14 -56 20 -41 9 -49 8 -85 -16 l-40 -26 36 39 c40 44 69 84 69 97 0 5
-12 6 -26 3 -22 -6 -25 -4 -19 14 6 20 -6 26 -43 21 -10 -2 -12 4 -7 18 5 17
2 21 -14 21 -11 0 -25 9 -32 21 -6 13 -18 19 -28 16 -14 -3 -17 2 -15 37 2 23
3 42 3 44 1 1 8 2 16 2 9 0 20 -11 25 -25z m-955 -6 c51 -24 110 -85 132 -137
8 -19 16 -61 17 -91 l2 -56 -38 -1 c-26 -1 -38 3 -38 12 0 24 -20 16 -72 -27
-83 -70 -66 -35 26 53 65 62 85 88 80 101 -10 27 -36 20 -79 -24 -22 -23 -53
-50 -70 -62 -28 -20 -27 -18 8 21 34 38 49 82 29 82 -5 0 -37 -22 -71 -50 -34
-27 -65 -50 -68 -50 -3 0 22 29 56 65 33 36 61 70 61 75 0 6 -13 10 -30 10
-20 0 -30 5 -30 15 0 23 -16 18 -53 -15 -42 -37 -53 -38 -31 -4 9 14 17 39 16
56 0 18 1 36 4 40 10 16 104 8 149 -13z m-190 1 c-4 -6 -24 -19 -45 -30 -49
-25 -64 -8 -18 20 35 21 74 27 63 10z m979 -42 c-72 -75 -94 -101 -94 -110 0
-4 -5 -8 -10 -8 -18 0 16 54 71 114 28 31 58 56 67 56 11 0 -1 -18 -34 -52z
m-1129 -10 c17 -25 24 -16 -73 -95 l-40 -32 10 42 c10 46 52 107 73 107 8 0
21 -10 30 -22z m128 -93 c-3 -9 -8 -14 -10 -11 -3 3 -2 9 2 15 9 16 15 13 8
-4z m642 -40 c-36 -16 -135 -45 -135 -39 0 14 102 52 140 53 24 0 24 -1 -5
-14z m-848 -43 c-21 -23 -22 -48 -2 -56 16 -6 10 -36 -9 -36 -6 0 -24 -16 -39
-35 -38 -47 -51 -45 -45 8 8 66 33 111 71 124 17 5 34 11 36 12 2 0 -3 -7 -12
-17z m188 -12 c-3 -5 -11 -10 -16 -10 -6 0 -7 5 -4 10 3 6 11 10 16 10 6 0 7
-4 4 -10z m897 -42 c-5 -7 -12 -33 -14 -58 -3 -42 -2 -45 23 -46 30 0 68 -35
66 -60 -1 -11 6 -20 18 -22 11 -2 27 -13 37 -25 14 -18 20 -20 42 -9 30 14 86
5 102 -16 9 -12 15 -12 47 2 20 8 37 20 37 25 0 6 4 11 8 11 7 0 8 -14 3 -51
-2 -13 -79 -38 -133 -43 -83 -9 -151 9 -192 49 -36 34 -76 103 -76 129 0 8 -7
22 -16 31 -21 21 -11 79 18 100 25 17 48 4 30 -17z m-852 -2 c0 -2 -8 -10 -17
-17 -16 -13 -17 -12 -4 4 13 16 21 21 21 13z m1373 -33 c2 -5 -1 -24 -9 -43
-7 -19 -13 -27 -13 -18 -1 9 -9 21 -18 27 -17 9 -17 11 2 25 23 17 32 19 38 9z
m-1044 -45 c0 -24 -3 -36 -6 -28 -3 8 -12 22 -20 32 -13 14 -12 17 4 27 10 6
19 11 21 11 1 0 2 -19 1 -42z m-39 -98 c-12 -16 -24 -30 -26 -30 -3 0 3 14 13
30 9 17 21 30 26 30 5 0 -1 -13 -13 -30z m-546 -6 c9 -8 16 -22 16 -30 0 -16
45 -20 55 -4 3 5 16 15 27 21 21 11 21 11 -1 -20 -22 -30 -23 -61 -2 -61 5 0
23 12 40 26 28 23 36 24 32 1 -1 -4 7 -10 16 -14 10 -3 25 -14 33 -24 15 -18
16 -18 53 8 29 20 40 24 49 15 18 -18 32 -15 73 18 42 33 59 29 53 -15 -3 -25
-10 -30 -86 -53 -76 -24 -90 -25 -156 -15 -98 14 -148 39 -222 111 -16 15 -19
52 -5 52 5 0 17 -7 25 -16z m61 -1935 c-22 -41 -31 -171 -16 -226 8 -31 30
-61 77 -108 55 -55 87 -76 190 -126 67 -33 126 -64 129 -69 3 -6 -5 -25 -20
-44 -16 -20 -24 -42 -21 -57 2 -13 -6 -46 -16 -74 -11 -27 -31 -81 -44 -120
-14 -38 -33 -86 -44 -106 -11 -20 -17 -39 -14 -42 3 -3 0 -15 -6 -27 -8 -15
-17 -19 -33 -14 -28 8 -144 120 -164 159 -9 17 -35 55 -58 85 -68 89 -141 211
-159 268 -48 145 -18 297 81 412 118 138 158 168 118 89z m465 -718 c0 -6 -4
-13 -10 -16 -5 -3 -10 1 -10 9 0 9 5 16 10 16 6 0 10 -4 10 -9z m341 -815
c-12 -31 -31 -32 -25 0 3 15 8 32 11 37 10 16 22 -15 14 -37z"/>
<path d="M2876 1081 c-20 -21 -27 -37 -24 -57 4 -36 27 -41 59 -14 24 21 24
21 2 15 -17 -5 -23 -2 -23 9 0 11 9 16 30 16 22 0 30 5 30 18 0 20 -18 42 -35
42 -6 0 -24 -13 -39 -29z"/>
<path d="M2914 4459 c-38 -16 -76 -28 -84 -29 -20 0 -230 -73 -230 -80 0 -3 5
-12 10 -20 7 -12 12 -12 22 -2 6 6 19 12 28 12 10 -1 5 -9 -15 -25 -46 -38
-22 -41 47 -7 35 17 81 34 103 38 22 3 63 12 90 19 56 14 237 10 266 -5 24
-13 69 -13 69 1 0 6 -12 26 -26 45 -15 19 -22 34 -17 34 19 0 52 -46 68 -98
19 -56 29 -69 41 -51 14 23 4 91 -17 120 -37 52 -66 61 -240 72 -33 3 -66 -5
-115 -24z m146 -25 c0 -2 -15 -4 -32 -4 -23 0 -29 3 -19 9 12 8 51 4 51 -5z
m-345 -84 c3 -5 1 -10 -4 -10 -6 0 -11 5 -11 10 0 6 2 10 4 10 3 0 8 -4 11
-10z"/>
<path d="M4064 4470 c-98 -14 -234 -109 -234 -163 0 -39 19 -34 76 20 67 63
258 151 214 98 -7 -8 -18 -15 -24 -15 -19 0 -141 -65 -169 -90 -15 -13 -27
-30 -27 -37 0 -24 30 -26 53 -5 43 40 182 89 307 108 19 3 53 9 75 13 22 4 57
3 78 -2 23 -6 42 -6 47 -1 29 29 -78 68 -138 52 -22 -6 -44 -6 -61 0 -14 6
-46 13 -71 15 -25 3 -52 7 -60 10 -8 2 -38 1 -66 -3z"/>
<path d="M3844 4450 c-64 -26 -136 -180 -83 -180 5 0 16 18 25 40 15 37 95
120 115 120 5 0 9 7 9 15 0 16 -32 19 -66 5z"/>
<path d="M3690 3531 c0 -10 14 -43 30 -74 17 -31 30 -65 30 -75 0 -11 -22 -34
-54 -56 -30 -21 -67 -49 -81 -62 -38 -35 -68 -53 -106 -64 -30 -9 -39 -6 -93
30 -78 50 -106 60 -186 66 -36 3 -68 9 -72 12 -8 8 43 88 78 120 19 19 22 27
14 42 -6 11 -14 20 -19 20 -8 0 -90 -104 -133 -169 -10 -14 -18 -36 -18 -48 0
-33 63 -72 120 -74 74 -3 87 -8 93 -39 5 -22 16 -32 53 -46 60 -23 174 -22
228 1 44 19 196 167 221 215 27 51 12 115 -42 188 -27 35 -63 43 -63 13z"/>
<path d="M4004 3179 c-18 -30 -159 -75 -299 -94 -22 -4 -56 -10 -75 -15 -19
-5 -62 -12 -95 -16 -33 -3 -69 -8 -80 -11 -11 -2 -85 -6 -165 -8 -140 -4 -215
4 -293 34 -29 11 -50 0 -45 -25 6 -34 97 -57 228 -58 126 -1 307 10 379 24 25
4 71 11 101 15 62 7 147 20 200 31 l35 7 -26 -29 c-15 -16 -58 -72 -95 -124
-82 -115 -87 -120 -154 -170 -46 -34 -61 -40 -104 -40 -58 0 -113 23 -178 72
-25 19 -80 51 -124 72 -98 47 -151 81 -188 123 -43 50 -87 44 -61 -7 21 -40
85 -90 190 -147 50 -27 128 -73 174 -101 120 -74 206 -86 294 -43 56 27 204
173 233 228 10 21 52 77 91 125 78 94 107 143 98 158 -8 13 -32 13 -41 -1z"/>
<path d="M3630 2960 c0 -5 7 -7 15 -4 8 4 15 8 15 10 0 2 -7 4 -15 4 -8 0 -15
-4 -15 -10z"/>
<path d="M3470 2946 c0 -7 7 -13 15 -13 8 0 15 4 15 8 0 4 -7 9 -15 13 -9 3
-15 0 -15 -8z"/>
<path d="M4821 1287 c-6 -8 -8 -16 -5 -20 10 -9 34 4 34 19 0 18 -14 18 -29 1z"/>
<path d="M3929 1099 c-10 -10 -19 -22 -20 -26 -3 -29 -11 -58 -23 -81 -20 -39
-30 -98 -17 -106 22 -14 59 6 71 37 7 18 25 59 40 91 20 42 26 65 20 77 -14
26 -49 30 -71 8z"/>
<path d="M2009 1069 c-12 -8 -12 -10 0 -18 7 -5 10 -14 7 -20 -9 -15 7 -14 22
1 26 26 1 57 -29 37z"/>
<path d="M4275 1019 c-10 -15 3 -25 16 -12 7 7 7 13 1 17 -6 3 -14 1 -17 -5z"/>
<path d="M1700 921 c0 -18 18 -21 30 -6 10 13 9 15 -9 15 -11 0 -21 -4 -21 -9z"/>
<path d="M1560 863 c-23 -9 -25 -16 -24 -90 3 -124 4 -134 14 -128 6 4 10 -15
10 -49 0 -30 -5 -58 -11 -61 -12 -8 -3 -100 14 -130 6 -11 13 -74 16 -140 5
-100 9 -120 22 -123 21 -4 26 19 22 88 -3 41 -10 397 -13 633 0 8 -28 8 -50 0z"/>
<path d="M2367 713 c-12 -11 -8 -23 7 -23 8 0 16 7 20 15 5 15 -14 21 -27 8z"/>
<path d="M2730 650 c-10 -6 -11 -13 -5 -19 6 -6 16 -7 25 -1 10 6 11 13 5 19
-6 6 -16 7 -25 1z"/>
<path d="M1895 600 c-3 -6 1 -13 10 -16 19 -8 30 0 20 15 -8 14 -22 14 -30 1z"/>
<path d="M5350 560 c0 -5 9 -10 21 -10 11 0 17 5 14 10 -3 6 -13 10 -21 10 -8
0 -14 -4 -14 -10z"/>
<path d="M4110 434 c0 -8 5 -12 10 -9 6 3 10 10 10 16 0 5 -4 9 -10 9 -5 0
-10 -7 -10 -16z"/>
<path d="M3100 394 c0 -8 5 -12 10 -9 6 3 10 10 10 16 0 5 -4 9 -10 9 -5 0
-10 -7 -10 -16z"/>
<path d="M2750 265 c0 -8 5 -15 10 -15 6 0 10 7 10 15 0 8 -4 15 -10 15 -5 0
-10 -7 -10 -15z"/>
<path d="M1785 220 c3 -5 8 -10 11 -10 2 0 4 5 4 10 0 6 -5 10 -11 10 -5 0 -7
-4 -4 -10z"/>
</g>
</svg>
