<?xml version="1.0" standalone="no"?>
<!DOCTYPE svg PUBLIC "-//W3C//DTD SVG 20010904//EN"
 "http://www.w3.org/TR/2001/REC-SVG-20010904/DTD/svg10.dtd">
<svg version="1.0" xmlns="http://www.w3.org/2000/svg"
 width="656.000000pt" height="656.000000pt" viewBox="0 0 656.000000 656.000000"
 preserveAspectRatio="xMidYMid meet">
<metadata>
Created by potrace 1.11, written by Peter Selinger 2001-2013
</metadata>
<g transform="translate(0.000000,656.000000) scale(0.100000,-0.100000)"
fill="#000000" stroke="none">
<path d="M3728 6505 c-2 -2 -21 -6 -43 -9 -22 -4 -47 -8 -55 -11 -8 -2 -32 -6
-54 -10 -21 -3 -41 -7 -45 -9 -3 -2 -28 -7 -55 -10 -27 -4 -52 -9 -55 -10 -5
-3 -69 -12 -156 -21 -16 -2 -43 -6 -60 -9 -16 -2 -59 -7 -95 -11 -36 -3 -85
-7 -110 -10 -25 -2 -81 -7 -125 -10 -211 -15 -296 -22 -365 -31 -71 -9 -83
-11 -250 -40 -14 -3 -43 -10 -65 -16 -22 -6 -48 -13 -58 -15 -52 -9 -311 -122
-327 -142 -3 -3 -21 -15 -40 -25 -34 -18 -220 -153 -230 -167 -3 -3 -27 -25
-55 -49 -27 -23 -79 -70 -115 -104 -165 -155 -319 -281 -394 -321 -28 -15 -58
-36 -66 -45 -50 -58 -71 -86 -91 -128 -13 -26 -26 -49 -29 -52 -3 -3 -25 -45
-50 -95 -24 -49 -47 -92 -51 -95 -3 -3 -16 -23 -28 -45 -26 -49 -44 -78 -52
-85 -3 -3 -11 -15 -17 -26 -9 -17 -153 -208 -215 -284 -23 -28 -117 -181 -117
-189 0 -5 -3 -11 -8 -13 -15 -6 -140 -290 -158 -358 -2 -8 -17 -64 -33 -125
-45 -170 -55 -267 -55 -550 0 -195 6 -326 20 -420 2 -16 6 -50 9 -75 2 -25 6
-55 9 -66 2 -12 7 -38 10 -58 3 -19 11 -57 17 -83 6 -27 12 -59 14 -73 2 -14
8 -37 14 -53 6 -15 13 -38 15 -50 12 -61 117 -341 184 -492 34 -75 163 -333
200 -400 58 -101 116 -200 122 -205 3 -3 18 -25 32 -50 34 -59 194 -287 224
-319 13 -14 24 -29 24 -32 0 -3 9 -17 21 -30 11 -13 37 -44 57 -69 43 -51 285
-295 322 -325 52 -40 156 -95 254 -134 56 -22 166 -65 246 -96 79 -31 160 -63
180 -72 145 -65 241 -116 266 -141 36 -36 74 -59 94 -57 8 1 23 3 32 3 51 5
127 151 143 275 13 98 17 141 19 224 5 181 -19 279 -78 307 -39 19 -176 11
-242 -14 -73 -28 -341 -32 -444 -7 -58 14 -82 21 -140 39 -250 78 -292 128
-299 356 -4 137 -32 188 -185 332 -180 169 -269 257 -287 287 -23 37 -28 121
-9 133 13 8 97 5 138 -4 38 -8 171 -78 252 -131 95 -63 323 -241 382 -297 10
-10 20 -18 23 -18 3 0 13 -8 23 -17 37 -36 72 -63 81 -63 5 0 11 -4 13 -8 11
-29 214 -144 278 -157 8 -2 15 -4 15 -5 0 -2 20 -7 90 -20 33 -7 96 -10 141
-8 108 6 139 24 184 111 19 37 46 80 60 96 14 16 41 48 60 72 19 24 44 53 55
65 65 66 94 146 68 183 -28 41 -69 53 -197 57 -287 10 -325 13 -391 28 -148
32 -310 107 -392 181 -6 5 -25 21 -42 34 -73 55 -215 221 -274 318 -76 125
-132 266 -162 403 -17 79 -19 93 -29 180 -15 129 -17 161 -21 267 -1 61 -6
117 -10 122 -3 6 -3 11 2 11 4 0 7 30 5 67 -1 38 -3 73 -3 78 0 6 2 49 5 97
15 259 46 326 216 468 90 76 90 75 85 120 -2 19 -6 80 -9 135 -3 55 -9 145
-12 200 -8 133 -9 351 -1 398 3 21 18 60 33 87 55 102 218 240 281 240 23 0
86 -50 193 -154 112 -108 162 -141 265 -174 81 -27 94 -28 243 -25 86 1 171 4
187 6 17 3 59 8 95 11 36 4 76 9 90 11 14 2 52 7 85 10 33 3 71 8 85 10 95 16
328 37 440 39 77 2 89 -1 145 -30 52 -27 110 -48 117 -42 2 1 12 -4 23 -10 12
-5 41 -13 65 -17 25 -3 53 -8 62 -11 10 -3 53 -6 95 -6 81 0 258 39 289 64 35
29 56 55 70 83 8 17 20 37 27 46 22 29 108 78 176 100 36 12 71 24 76 28 6 3
15 7 20 8 6 1 30 7 55 14 25 6 52 12 60 14 8 2 16 4 18 5 3 3 78 20 117 26 6
1 12 3 15 4 19 7 53 11 101 13 47 2 61 -2 92 -26 58 -44 72 -85 70 -202 -2
-57 -13 -150 -26 -215 -23 -111 -27 -211 -13 -274 4 -17 39 -109 78 -205 94
-236 160 -430 183 -546 30 -152 34 -190 40 -345 2 -74 5 -137 6 -140 1 -3 0
-9 -1 -15 -1 -5 -3 -39 -5 -75 -2 -36 -6 -85 -10 -110 -10 -72 -22 -135 -25
-135 -1 0 -3 -7 -5 -15 -10 -50 -39 -132 -71 -198 -32 -67 -135 -228 -154
-242 -16 -11 -140 -210 -140 -225 0 -8 -4 -15 -9 -15 -5 0 -13 -9 -16 -21 -18
-56 -118 -173 -175 -205 -19 -10 -37 -22 -40 -25 -9 -11 -226 -117 -317 -155
-99 -41 -221 -83 -242 -84 -31 0 -97 -41 -114 -69 -25 -42 -23 -92 8 -246 9
-42 64 -203 97 -285 19 -47 38 -94 43 -105 4 -11 10 -38 12 -60 5 -54 5 -57 0
-80 -2 -11 -8 -47 -13 -80 -4 -33 -8 -62 -9 -65 0 -3 -5 -27 -10 -55 -4 -27
-10 -57 -11 -65 -9 -44 -17 -111 -19 -159 -4 -78 1 -93 95 -296 34 -72 47
-113 64 -196 3 -14 17 -31 31 -39 43 -23 89 1 196 103 100 96 197 182 233 206
11 8 23 18 26 22 4 5 360 291 395 317 53 39 195 155 236 195 11 9 21 17 24 17
3 0 13 8 23 18 10 9 56 51 102 92 109 97 180 168 260 260 36 41 68 77 73 78 4
2 7 8 7 13 0 8 51 80 70 99 3 3 11 16 19 30 8 14 31 52 51 85 50 82 140 257
140 272 0 7 5 13 10 13 6 0 10 6 10 13 0 7 8 31 19 53 26 53 46 100 135 309
42 99 84 193 92 210 20 38 28 240 28 690 0 397 -14 662 -50 935 -2 14 -6 48
-9 75 -5 48 -9 72 -19 125 -3 14 -8 41 -10 60 -3 19 -10 58 -16 85 -6 28 -13
63 -16 80 -3 16 -15 54 -27 85 -12 30 -22 57 -22 60 -2 9 -30 65 -37 75 -14
19 -102 129 -172 217 -25 31 -46 61 -46 66 0 6 -4 12 -8 14 -4 2 -23 25 -42
53 -19 27 -39 55 -45 61 -5 6 -57 82 -115 169 -112 166 -261 381 -281 403 -6
8 -37 46 -69 85 -48 61 -103 117 -189 197 -44 41 -178 119 -266 155 -22 10
-49 21 -60 25 -18 8 -123 43 -135 45 -3 1 -23 7 -45 13 -22 7 -96 28 -165 48
-218 63 -243 70 -350 109 -327 117 -284 107 -477 110 -84 1 -154 1 -155 0z"/>
</g>
</svg>
