<?xml version="1.0" encoding="UTF-8" standalone="no"?>
<svg
   xmlns:dc="http://purl.org/dc/elements/1.1/"
   xmlns:cc="http://creativecommons.org/ns#"
   xmlns:rdf="http://www.w3.org/1999/02/22-rdf-syntax-ns#"
   xmlns:svg="http://www.w3.org/2000/svg"
   xmlns="http://www.w3.org/2000/svg"
   xmlns:sodipodi="http://sodipodi.sourceforge.net/DTD/sodipodi-0.dtd"
   xmlns:inkscape="http://www.inkscape.org/namespaces/inkscape"
   width="158.8942mm"
   height="87.273056mm"
   viewBox="0 0 158.8942 87.273053"
   version="1.1"
   id="svg8"
   sodipodi:docname="box.svg"
   inkscape:version="0.92.5 (2060ec1f9f, 2020-04-08)">
  <sodipodi:namedview
     pagecolor="#ffffff"
     bordercolor="#666666"
     borderopacity="1"
     objecttolerance="10"
     gridtolerance="10"
     guidetolerance="10"
     inkscape:pageopacity="0"
     inkscape:pageshadow="2"
     inkscape:window-width="1920"
     inkscape:window-height="1056"
     id="namedview14"
     showgrid="false"
     fit-margin-top="0"
     fit-margin-left="0"
     fit-margin-right="0"
     fit-margin-bottom="0"
     inkscape:zoom="2.0107588"
     inkscape:cx="374.73515"
     inkscape:cy="140.10257"
     inkscape:window-x="0"
     inkscape:window-y="0"
     inkscape:window-maximized="0"
     inkscape:current-layer="layer1" />
  <defs
     id="defs2" />
  <metadata
     id="metadata5">
    <rdf:RDF>
      <cc:Work
         rdf:about="">
        <dc:format>image/svg+xml</dc:format>
        <dc:type
           rdf:resource="http://purl.org/dc/dcmitype/StillImage" />
        <dc:title></dc:title>
      </cc:Work>
    </rdf:RDF>
  </metadata>
  <g
     id="layer1"
     transform="matrix(8.7685278,0,0,7.1213222,-815.63867,-1401.5292)">
    <path
       style="fill:none;stroke:#000000;stroke-width:0.09501833;stroke-linecap:butt;stroke-linejoin:miter;stroke-miterlimit:4;stroke-dasharray:none;stroke-opacity:1"
       d="m 94.302578,197.19229 c 0.0075,-0.0298 0.02235,-0.0587 0.02235,-0.0894 0,-0.18108 -0.793102,0.16699 -0.916213,0.53631 -0.09007,0.27024 -0.442236,1.48428 -0.312853,1.74304 0.128743,0.25748 0.08938,0.63968 0.08938,0.96091 0,0.14498 -0.02934,0.28216 -0.08938,0.40223 -0.03548,0.071 0.140028,1.35865 0.178774,1.47488 0.127681,0.38305 -0.07235,1.37486 0.111734,1.74304 0.093,0.18601 -0.07382,0.50042 0.02235,0.69275 0.191945,0.38388 -0.02866,2.02722 0.111734,2.16762 0.06814,0.0681 -0.04443,0.33571 0,0.42458 0.114642,0.22929 0.194572,0.47853 0.312852,0.7151 0.256873,0.51373 1.476224,0.75978 2.033543,0.75978 0.116384,0 0.648253,-0.0892 0.737438,0 0.05241,0.0524 0.06614,0.0662 0.134056,0.13409"
       id="path18"
       inkscape:connector-curvature="0" />
    <path
       style="fill:none;stroke:#000000;stroke-width:0.09501833;stroke-linecap:butt;stroke-linejoin:miter;stroke-miterlimit:4;stroke-dasharray:none;stroke-opacity:1"
       d="m 96.738348,208.85723 c 0.0062,-0.031 -0.192325,-0.15287 -0.169982,-0.13045 0.06481,0.0648 0.596654,0.28691 0.683953,0.28691 0.509964,0 0.704319,0.0259 1.184372,-0.13408 0.332072,-0.11069 0.689555,0.1128 1.027944,0 0.07053,-0.0235 0.465522,-0.14713 0.536315,-0.11173 0.18068,0.0903 0.64007,0.24847 0.84918,0.17877 0.26889,-0.0897 0.54936,-0.25289 0.84917,-0.31285 0.43166,-0.0864 0.93453,0.13542 1.40783,-0.0223 0.27712,-0.0923 0.83978,0.14996 1.0503,0.0446 0.0729,-0.0365 1.0856,-0.15955 1.09498,-0.15643 0.12891,0.043 0.28802,-0.0118 0.42459,0.0223 0.41374,0.10344 0.8873,0.15644 1.3408,0.15644 0.61149,0 1.51365,-0.32228 2.01119,-0.15644 0.13764,0.0459 0.27892,0.0855 0.42458,0.13408 0.14189,0.0473 0.32786,-0.0223 0.46928,-0.0223 0.0748,0 0.24718,0.1394 0.24718,0.0646"
       id="path20"
       inkscape:connector-curvature="0" />
    <path
       style="fill:none;stroke:#000000;stroke-width:0.09501833;stroke-linecap:butt;stroke-linejoin:miter;stroke-miterlimit:4;stroke-dasharray:none;stroke-opacity:1"
       d="m 109.96756,208.67846 c 0.0397,0.0397 0.21539,0.0446 0.29051,0.0446 0.0815,0 0.25817,0.0547 0.31285,0 0.0264,-0.0264 0.0101,-0.0995 0.0447,-0.13408 0.2653,-0.2653 0.40223,-0.59979 0.40223,-1.05029 0,-0.14241 0.0223,-0.31278 0.0223,-0.46929 0,-0.0446 -0.0447,-0.13407 0,-0.13407 0.0674,0 -0.0113,0.13459 -0.0223,0.20112"
       id="path24"
       inkscape:connector-curvature="0" />
    <path
       style="fill:none;stroke:#000000;stroke-width:0.09501833;stroke-linecap:butt;stroke-linejoin:miter;stroke-miterlimit:4;stroke-dasharray:none;stroke-opacity:1"
       d="m 111.0178,207.13649 c 0.16692,-0.87496 4e-5,-1.74084 4e-5,-2.68155 0,-0.28611 -4.9e-4,-0.69355 -0.11172,-0.91621 -0.0563,-0.11264 0.0204,-1.04649 0.0671,-1.13968 0.0616,-0.12318 -0.0598,-0.52176 -0.11173,-0.6257 -0.0493,-0.0986 -0.005,-0.55393 0.0447,-0.60336 0.0929,-0.0929 -0.0447,-0.53664 -0.0447,-0.64805 0,-0.56959 0.14268,-1.23422 -0.0894,-1.69834 -0.0731,-0.14615 0.11107,-0.58168 0,-0.69275 -0.0282,-0.0282 -0.0447,0.15614 -0.0447,0.29051"
       id="path26"
       inkscape:connector-curvature="0" />
    <path
       style="fill:none;stroke:#000000;stroke-width:0.09501833;stroke-linecap:butt;stroke-linejoin:miter;stroke-miterlimit:4;stroke-dasharray:none;stroke-opacity:1"
       d="m 110.72731,198.42136 c 0.35521,-0.67501 0.0636,-1.1973 -0.4916,-1.47488 -0.11804,-0.059 -0.56738,-0.12972 -0.69274,-0.0671 -0.42161,0.21081 -1.33805,-0.0349 -1.676,0.13408 -0.22747,0.11374 -1.43114,-0.0593 -1.74303,0.0447 -0.49905,0.16635 -2.48293,0.24458 -2.92741,0.0223 -0.16433,-0.0822 -1.02291,0.15642 -1.22907,0.15642 -0.14294,0 -0.67664,0.17253 -0.75977,0.0894 -0.0535,-0.0535 -0.75632,-0.2046 -0.87152,-0.0894 -0.10288,0.2958 -0.30601,0.16937 -0.536327,0.13418 -0.254765,-0.12739 -1.053625,0.15475 -1.273753,0.0447 -0.251842,-0.12593 -0.647544,0.0561 -0.893864,-0.0671 -0.338001,-0.169 -1.755351,-0.11173 -2.212316,-0.11173 -0.227399,0 -0.632588,0.0301 -0.826824,-0.0671 -0.03138,-0.0157 -0.130929,-0.0208 -0.178773,-0.0447 -0.0298,-0.0148 -0.07448,-0.0744 -0.08938,-0.0446 -0.01699,0.034 -0.0149,0.0744 -0.02234,0.11172"
       id="path32"
       inkscape:connector-curvature="0" />
  </g>
  <text
     id="text65"
     y="50.675972"
     x="129.6537"
     style="font-style:normal;font-variant:normal;font-weight:normal;font-stretch:normal;font-size:4.23333359px;line-height:1.25;font-family:Roboto;-inkscape-font-specification:Roboto;letter-spacing:0px;word-spacing:0px;fill:#000000;fill-opacity:1;stroke:none;stroke-width:0.26458335"
     xml:space="preserve"><tspan
       style="stroke-width:0.26458335"
       y="54.380138"
       x="129.6537"
       id="tspan63" /></text>
</svg>
