<?xml version="1.0" encoding="UTF-8" standalone="no"?>
<svg
   xmlns:dc="http://purl.org/dc/elements/1.1/"
   xmlns:cc="http://creativecommons.org/ns#"
   xmlns:rdf="http://www.w3.org/1999/02/22-rdf-syntax-ns#"
   xmlns:svg="http://www.w3.org/2000/svg"
   xmlns="http://www.w3.org/2000/svg"
   xmlns:sodipodi="http://sodipodi.sourceforge.net/DTD/sodipodi-0.dtd"
   xmlns:inkscape="http://www.inkscape.org/namespaces/inkscape"
   width="186.74275mm"
   height="104.97488mm"
   viewBox="0 0 186.74275 104.97487"
   version="1.1"
   id="svg8"
   sodipodi:docname="boxinverted.svg"
   inkscape:version="0.92.5 (2060ec1f9f, 2020-04-08)">
  <sodipodi:namedview
     pagecolor="#ffffff"
     bordercolor="#666666"
     borderopacity="1"
     objecttolerance="10"
     gridtolerance="10"
     guidetolerance="10"
     inkscape:pageopacity="0"
     inkscape:pageshadow="2"
     inkscape:window-width="1920"
     inkscape:window-height="1056"
     id="namedview14"
     showgrid="false"
     inkscape:zoom="1.4218212"
     inkscape:cx="423.42027"
     inkscape:cy="252.19443"
     inkscape:window-x="0"
     inkscape:window-y="0"
     inkscape:window-maximized="0"
     inkscape:current-layer="svg8"
     fit-margin-top="0"
     fit-margin-left="0"
     fit-margin-right="0"
     fit-margin-bottom="0" />
  <defs
     id="defs2" />
  <metadata
     id="metadata5">
    <rdf:RDF>
      <cc:Work
         rdf:about="">
        <dc:format>image/svg+xml</dc:format>
        <dc:type
           rdf:resource="http://purl.org/dc/dcmitype/StillImage" />
        <dc:title></dc:title>
      </cc:Work>
    </rdf:RDF>
  </metadata>
  <text
     id="text65"
     y="71.293884"
     x="122.91087"
     style="font-style:normal;font-variant:normal;font-weight:normal;font-stretch:normal;font-size:4.04140663px;line-height:1.25;font-family:Roboto;-inkscape-font-specification:Roboto;letter-spacing:0px;word-spacing:0px;fill:#000000;fill-opacity:1;stroke:#000000;stroke-width:0.25258791"
     xml:space="preserve"><tspan
       style="stroke:#000000;stroke-width:0.25258791"
       y="74.830101"
       x="122.91087"
       id="tspan63" /></text>
  <path
     style="fill:#000000;fill-opacity:1;stroke:#ffffff;stroke-width:0.36816663;stroke-miterlimit:4;stroke-dasharray:none;stroke-opacity:1"
     d="m 33.681641,6.6171875 c -3.044503,0.054936 -5.55609,1.3330342 -11.259766,4.2500005 -10.099465,5.165076 -10.199294,5.298628 -15.4628906,20.792968 -5.5457779,16.325001 -6.05771511,22.848662 -3.875,49.25 0.8222364,9.945143 0.5374583,16.99124 -0.8164063,20.259764 -1.60868033,3.88373 -1.40780586,8.53127 0.8945313,20.64844 1.6339655,8.5998 3.6967147,26.81814 4.5820312,40.48633 0.8853544,13.66819 2.5627584,31.89411 3.7285154,40.5 1.165796,8.6059 2.363464,27.65724 2.660156,42.33789 0.296808,14.68064 0.637183,28.76378 0.75586,31.29492 0.366274,7.80578 11.493136,26.22342 18.179687,30.08984 11.668008,6.74694 31.329145,10.74007 57.398438,11.66016 14.350753,0.50649 27.185943,1.88964 30.375003,3.27148 3.03738,1.31607 6.76451,2.89183 8.2832,3.50196 1.00016,0.40163 6.22617,0.53334 13.125,0.40625 v 0 c 13.1413,0.84874 13.87529,4.09112 18.32617,-0.57422 6.56417,-6.88051 8.617,-13.01478 8.9375,-26.70117 0.14854,-6.34405 0.94495,-15.27761 1.76953,-19.85352 1.28969,-7.15692 -1.00196,-50.58513 -4.97265,-94.25195 -0.52664,-5.79156 -0.12245,-14.44597 0.89843,-19.23242 1.44889,-6.79339 1.24052,-10.51919 -0.95312,-16.98047 -1.86671,-5.49844 -2.37703,-10.78265 -1.51953,-15.74219 0.70991,-4.10625 1.20997,-9.5372 1.11133,-12.06836 -0.10054,-2.53115 -0.13772,-14.26439 -0.0859,-26.074218 0.0658,-14.922807 -0.73112,-23.450331 -2.61328,-27.955078 -2.96247,-7.090182 -2.76818,-15.707792 0.54492,-24.066406 3.02793,-7.639421 0.87089,-14.766834 -6.40625,-21.15625 -4.62032,-4.056688 -9.31778,-6.593931 -15.03711,-7.822266 -8.15829,-0.83 -27.03348,-1.465231 -46.333984,-1.486328 C 64.555006,11.368328 51.758875,10.663312 43.505859,8.5136719 38.740248,7.27239 36.049587,6.5744597 33.681641,6.6171875 Z"
     transform="scale(0.26458333)"
     id="path19"
     inkscape:connector-curvature="0"
     sodipodi:nodetypes="scsccccccccscccccccsccccccccccss" />
  <path
     style="fill:#000000;fill-opacity:1;stroke:#ffffff;stroke-width:0.09741076;stroke-miterlimit:4;stroke-dasharray:none;stroke-opacity:1"
     d="m 289.26807,-3.8243013 c -0.40182,-0.16143 -1.3881,-0.57843 -2.19174,-0.92664 -0.84377,-0.36562 -4.23941,-0.7312 -8.03638,-0.8652 -6.8975,-0.24344 -12.09952,-1.30033 -15.18668,-3.0854504 -1.76915,-1.02299 -4.71355,-5.8959143 -4.81046,-7.9611933 -0.0314,-0.669698 -0.12139,-4.39566 -0.19992,-8.279913 -0.0785,-3.884254 -0.39516,-8.925257 -0.70361,-11.202235 -0.30844,-2.276975 -0.75246,-7.098805 -0.98671,-10.71518 -0.23424,-3.616375 -0.77962,-8.436882 -1.21194,-10.712246 -0.60916,-3.206001 -0.66245,-4.435425 -0.23682,-5.462995 0.35821,-0.864798 0.43323,-2.72921 0.21568,-5.360529 -0.57751,-6.985354 -0.44163,-8.71166 1.02569,-13.030983 1.39266,-4.099544 1.4188,-4.134684 4.09095,-5.501277 2.68284,-1.372054 2.69631,-1.373558 5.57837,-0.622878 2.18361,0.568759 5.56957,0.755404 13.86717,0.764404 6.03798,0.0066 11.96443,0.23929 13.16988,0.517203 1.8344,0.42291 7.8825,0.541103 18.26452,0.356928 1.07152,-0.01901 2.96709,0.04708 4.21241,0.146864 1.69739,0.136007 2.51196,-0.0428 3.2539,-0.714242 0.91691,-0.82979 1.30563,-0.851022 5.28513,-0.288673 3.84598,0.543483 5.0483,0.498019 11.49076,-0.434516 5.69043,-0.82368 7.68299,-0.936925 9.52698,-0.541459 3.65702,0.784293 47.02882,-0.431319 54.87458,-1.538009 4.69962,-0.662908 7.24563,-0.128751 9.71325,2.037852 1.92541,1.690533 2.49652,3.576101 1.69538,5.597364 -0.87659,2.211551 -0.92833,4.49158 -0.14451,6.367524 0.49799,1.191881 0.70895,3.44791 0.69158,7.396236 -0.0137,3.124684 -0.004,6.229176 0.0226,6.898876 0.0261,0.6697 -0.10606,2.106544 -0.29389,3.192989 -0.22688,1.312212 -0.0919,2.710566 0.402,4.165362 0.5804,1.709547 0.63579,2.695162 0.25244,4.492577 -0.2701,1.266415 -0.37709,3.556312 -0.23775,5.088662 1.05058,11.553513 1.6567,23.043876 1.31547,24.93748 -0.21817,1.210707 -0.42886,3.574624 -0.46819,5.253154 -0.0848,3.621193 -0.62803,5.2439037 -2.3648,7.0643737 -1.2706,1.33182 -1.34425,1.34544 -5.69189,1.05293 -2.42255,-0.16301 -5.95284,-0.5993 -7.84511,-0.96952 -2.82305,-0.55236 -4.26524,-0.56651 -8.03639,-0.0788 -2.61805,0.33855 -8.15918,0.52522 -12.87582,0.43375 -12.66163,-0.24552 -15.88361,-0.23227 -31.85629,0.13111 -13.99493,0.31838 -15.0243,0.4048 -18.71691,1.57129 -3.88337,1.22674 -3.92658,1.2292 -6.99139,0.3996 -2.37636,-0.64323 -3.72522,-0.73822 -5.8793,-0.41398 -1.53748,0.2314 -4.76797,0.44906 -7.17889,0.48366 -2.41093,0.0346 -7.01357,0.19485 -10.22813,0.35611 -3.21455,0.16125 -6.1734,0.16111 -6.57522,-2.5e-4 z"
     id="path19-3-6"
     inkscape:connector-curvature="0" />
</svg>
