<?xml version="1.0" encoding="UTF-8" standalone="no"?>
<svg
   xmlns:dc="http://purl.org/dc/elements/1.1/"
   xmlns:cc="http://creativecommons.org/ns#"
   xmlns:rdf="http://www.w3.org/1999/02/22-rdf-syntax-ns#"
   xmlns:svg="http://www.w3.org/2000/svg"
   xmlns="http://www.w3.org/2000/svg"
   width="8.9871531mm"
   height="17.56097mm"
   viewBox="0 0 8.9871527 17.560971"
   version="1.1"
   id="svg8">
  <defs
     id="defs2" />
  <metadata
     id="metadata5">
    <rdf:RDF>
      <cc:Work
         rdf:about="">
        <dc:format>image/svg+xml</dc:format>
        <dc:type
           rdf:resource="http://purl.org/dc/dcmitype/StillImage" />
        <dc:title></dc:title>
      </cc:Work>
    </rdf:RDF>
  </metadata>
  <g
     id="layer1"
     transform="translate(-94.477546,-168.71792)">
    <path
       style="fill:#ff0000;stroke:#000000;stroke-width:0.30000001;stroke-miterlimit:4;stroke-dasharray:none;stroke-opacity:1"
       d="m 130.2193,184.79621 c -0.6053,-0.0861 -1.46547,-0.21902 -1.91147,-0.29531 -0.44602,-0.0763 -2.60946,-0.17374 -4.80765,-0.21653 -2.03883,0.14118 -4.71378,-0.50418 -6.00687,-0.24552 -0.8189,0.27245 -1.22929,0.24954 -1.9539,-0.10691 -0.39618,-0.19489 -0.95622,-0.59024 -1.24455,-0.87856 -0.57687,-0.57687 -0.71248,-0.94053 -1.26929,-3.40372 -0.34614,-1.53129 -0.3731,-2.19687 -0.11789,-2.91056 0.0288,-0.74547 0.0575,-1.22584 0.18588,-2.39215 l 0.24044,-0.86425 0.0243,-1.40647 c 0.24701,-0.89077 0.74655,-1.66866 0.98983,-2.65957 0.32711,-1.33229 0.79191,-2.37452 1.07634,-2.41348 0.077,-0.0105 0.44457,-0.0236 0.81692,-0.029 1.24981,-0.0951 0.69163,-0.8219 2.00697,-0.47799 2.22697,0.58227 2.22539,0.58223 3.85119,0.0882 0.92895,-0.2823 1.02099,-0.28956 1.96939,-0.15541 0.79051,0.11182 1.42329,0.10988 3.08015,-0.009 2.61953,-0.18868 3.56681,-0.17291 4.84453,0.0806 l 1.01611,0.20164 0.71291,-0.31994 c 1.00427,-0.45069 1.47174,-0.47158 2.6719,-0.11943 1.76877,0.51899 2.53391,1.04192 2.93901,2.00866 0.0875,0.20894 0.3199,1.09504 0.51634,1.96912 0.74735,2.24942 0.56784,2.95337 0.84852,4.5555 -0.11644,0.65067 -0.13999,1.51234 -0.0902,3.30164 l 0.0674,2.42117 -0.36515,0.94035 c -0.65697,1.69182 -1.58905,2.70883 -2.48262,2.70883 -1.68082,0.0615 -0.88761,-0.14194 -2.96825,-0.004 -1.72744,0.18487 -2.63985,0.39679 -4.64046,0.63278 z m -5.35217,-5.77424 c 0.17205,-0.0903 0.7023,-0.45702 1.17831,-0.81484 0.66877,-0.50272 1.10376,-0.72507 1.91382,-0.97828 0.57659,-0.18023 1.2558,-0.43837 1.50938,-0.57365 0.63777,-0.34024 1.3983,-1.04016 1.26439,-1.16362 -0.0596,-0.0549 -0.3945,-0.19278 -0.74434,-0.30639 -0.49964,-0.16228 -0.83736,-0.39935 -1.57452,-1.10532 -0.76607,-0.73366 -1.14759,-0.99647 -2.07714,-1.43085 -0.62628,-0.29266 -1.30878,-0.66184 -1.51666,-0.8204 -0.44733,-0.3412 -0.96124,-0.37056 -1.32536,-0.0757 -0.24373,0.19737 -0.25148,0.2409 -0.10824,0.6082 0.10819,0.27741 0.16857,1.25141 0.20211,3.2599 l 0.0479,2.86429 0.39916,0.35047 c 0.46332,0.4068 0.42676,0.39861 0.83128,0.1862 z"
       id="path1088" />
    <path
       style="fill:#000000;stroke:#000000;stroke-width:0.32888499;stroke-miterlimit:4;stroke-dasharray:none;stroke-opacity:1"
       d="m 77.751066,185.32801 c 0,-0.0968 -0.124044,-0.42289 -0.275651,-0.72473 -0.274827,-0.54717 -0.275165,-0.55161 -0.112844,-1.48157 0.152905,-0.87601 0.150355,-0.96031 -0.04191,-1.38561 -0.246926,-0.5462 -0.445174,-1.24309 -0.446007,-1.56783 -4.34e-4,-0.17984 0.08639,-0.25668 0.35568,-0.31463 0.467767,-0.10066 1.641572,-0.63263 2.07163,-0.93886 0.187234,-0.13333 0.435309,-0.44429 0.551278,-0.69102 0.115967,-0.24673 0.376939,-0.65668 0.579933,-0.911 0.590046,-0.73919 0.849761,-1.56619 0.853205,-2.71684 0.0033,-1.11038 -0.182476,-1.93504 -0.738751,-3.27885 -0.366652,-0.88574 -0.36769,-0.89328 -0.220172,-1.6002 0.177906,-0.85253 0.112484,-1.27203 -0.233759,-1.4989 -0.232494,-0.15233 -0.331494,-0.15235 -0.998872,-2e-4 -1.038141,0.23667 -1.55044,0.47513 -1.693011,0.78803 -0.12409,0.27236 -0.19667,0.31092 -0.820951,0.4363 -0.339566,0.0682 -1.192543,-0.10919 -1.40058,-0.29126 -0.155311,-0.13592 -0.725838,-0.11403 -2.307676,0.0886 -1.944466,0.24904 -2.335399,0.18195 -3.01269,-0.51707 -0.287606,-0.29683 -0.595768,-0.53968 -0.684806,-0.53968 -0.288668,0 -0.901811,0.4879 -1.104895,0.87921 -0.171514,0.33048 -0.188306,0.54797 -0.125527,1.62594 l 0.07247,1.24441 -0.39139,0.32262 c -0.485024,0.3998 -0.618348,0.84946 -0.612856,2.06701 0.01,2.20814 0.304903,3.19527 1.27814,4.27774 0.730898,0.81294 1.604802,1.20367 2.692111,1.20367 1.231079,0 1.262116,0.0316 0.68221,0.69452 -0.270606,0.30934 -0.492011,0.62162 -0.492011,0.69397 0,0.32338 -0.91848,0.30057 -1.57537,-0.0391 -0.177222,-0.0916 -0.635578,-0.43245 -1.018568,-0.75735 -1.11101,-0.9425 -1.844468,-1.38738 -2.310854,-1.40163 -0.384411,-0.0117 -0.414423,0.0104 -0.445449,0.32914 -0.02938,0.30179 0.06351,0.43092 0.794806,1.10475 0.789966,0.72791 0.828147,0.78534 0.829688,1.24788 0.0025,0.77492 0.177387,1.00032 0.986203,1.27164 0.819214,0.27481 1.395742,0.30795 2.185556,0.12564 0.386859,-0.0893 0.594119,-0.0939 0.672985,-0.0151 0.171842,0.17184 0.136715,1.48907 -0.05174,1.9401 -0.176488,0.4224 -0.296447,0.48436 -0.488866,0.2525 -0.143948,-0.17344 -0.843866,-0.49536 -2.099845,-0.96578 -0.808988,-0.303 -1.022601,-0.44256 -1.620248,-1.05852 -1.355318,-1.39684 -2.675202,-3.69771 -3.272974,-5.70558 -0.376923,-1.26605 -0.476063,-3.33172 -0.213488,-4.44822 0.241734,-1.02788 0.709564,-1.96451 1.37444,-2.75172 0.305552,-0.36177 0.726819,-1.01634 0.936146,-1.45459 0.276238,-0.57833 0.460497,-0.82719 0.671996,-0.9076 0.16027,-0.0609 0.691431,-0.48777 1.180356,-0.94853 1.622873,-1.52937 2.387987,-1.84722 4.835578,-2.00883 0.844137,-0.0557 1.855458,-0.17488 2.24738,-0.26478 0.990743,-0.22726 1.715003,-0.20902 2.302195,0.058 0.271331,0.12337 1.035987,0.37182 1.699238,0.55211 1.921953,0.52243 2.221377,0.7678 3.77377,3.09248 0.436268,0.65331 0.963586,1.37641 1.171816,1.60689 0.288332,0.31916 0.416161,0.59792 0.536129,1.1692 0.258564,1.23124 0.409401,3.28691 0.356759,4.86205 l -0.04944,1.47911 -0.562012,1.30712 c -0.947811,2.20444 -1.471653,2.83759 -3.938149,4.75987 -0.769179,0.59947 -1.568516,1.26794 -1.776305,1.4855 -0.413523,0.43297 -0.554043,0.48867 -0.554043,0.21963 z"
       id="path8755" />
    <path
       style="fill:#4464a8;fill-opacity:1;stroke:#000000;stroke-width:0.22500001;stroke-miterlimit:4;stroke-dasharray:none;stroke-opacity:1"
       d="m 97.523735,186.12666 c -0.05468,-0.0216 -0.09939,-0.0626 -0.09939,-0.0913 0,-0.0286 -0.03536,-0.10919 -0.07854,-0.17909 -0.06666,-0.10784 -0.07791,-0.17688 -0.07439,-0.45604 0.0048,-0.17807 -0.01278,-0.50892 -0.01756,-0.86184 -0.02695,-0.67776 -0.04717,-0.93135 -0.04547,-1.27228 -0.05952,-0.40439 -0.03996,-0.95646 -0.06189,-1.88125 -0.01732,-0.7312 -0.01132,-0.90331 0.03827,-1.09619 0.04614,-0.17948 0.05873,-0.40934 0.05844,-1.06618 -2.06e-4,-0.46055 -0.01012,-0.89609 -0.02198,-0.96786 l -0.02155,-0.1305 -0.456894,-0.0205 c -0.25666,-0.0115 -0.678637,-0.0628 -0.96287,-0.117 -0.514664,-0.0981 -0.984006,-0.13084 -1.127571,-0.0785 -0.07619,0.0277 -0.07747,0.0247 -0.03094,-0.0723 0.07934,-0.16558 0.238038,-0.98112 0.224239,-1.86344 l -0.01283,-0.82217 v 0 c 0.234335,-0.005 0.137764,0.11733 0.182766,0.12862 0.04499,0.0113 0.243536,-0.0138 0.441182,-0.0557 0.579876,-0.12311 0.586991,-0.12326 0.956263,-0.0221 0.369955,0.10141 0.664124,0.12161 0.710847,0.0488 0.05323,-0.083 0.116624,-0.36857 0.118283,-0.53308 0.0012,-0.0914 -0.01943,-0.28052 -0.01883,-0.48968 l -0.0061,-0.28413 0.0178,-0.22763 c 0,0 0.04117,-0.41179 0.04372,-0.77392 6.05e-4,-0.0919 0.04196,-0.29194 0.09178,-0.44459 0.07247,-0.22203 0.09682,-0.39504 0.121755,-0.86512 0.03487,-0.65823 0.05692,-0.73304 0.349667,-1.18728 0.223693,-0.34713 0.509743,-0.68526 0.666793,-0.7882 0.06955,-0.0455 0.195258,-0.12989 0.279298,-0.18731 0.08404,-0.0574 0.244253,-0.13588 0.356031,-0.17433 0.111779,-0.0384 0.254448,-0.1007 0.317039,-0.1383 0.0746,-0.0448 0.215038,-0.0756 0.407392,-0.0896 0.196105,-0.0142 0.334105,-0.0449 0.415625,-0.0927 0.19974,-0.11706 0.57007,-0.16142 1.13379,-0.13584 0.4577,0.0208 1.28477,0.0967 1.66578,0.15288 0.23338,0.0344 0.24384,0.0514 0.15536,0.25138 -0.0697,0.15756 -0.0758,0.21759 -0.0566,0.55757 0.0118,0.20955 0.0545,0.6087 0.0948,0.88698 0.0404,0.27829 0.0736,0.5853 0.0739,0.68225 l 6.1e-4,0.17627 -0.18975,-0.0226 c -0.61071,-0.0727 -0.58558,-0.0735 -0.7538,0.0232 -0.0873,0.0502 -0.39459,0.15847 -0.68282,0.2406 -0.5992,0.17077 -0.94234,0.32383 -1.04306,0.46528 -0.0949,0.13334 -0.14228,0.32557 -0.18667,0.75809 -0.0206,0.201 -0.0617,0.44358 -0.0912,0.53908 -0.0606,0.19597 -0.14758,1.36051 -0.11209,1.50189 0.05,0.19907 0.48023,0.2367 1.97126,0.1724 0.58052,-0.0251 1.06301,-0.038 1.07221,-0.0288 0.009,0.009 -0.0575,0.16591 -0.14804,0.34827 -0.10486,0.21103 -0.19084,0.45285 -0.23651,0.66523 -0.0395,0.18352 -0.0963,0.40894 -0.12619,0.50093 -0.0481,0.14779 -0.0485,0.23612 -0.003,0.75897 0.0284,0.32545 0.0486,0.59511 0.0451,0.59927 -0.004,0.004 -0.50724,0.0189 -1.11934,0.0328 l -1.11291,0.0254 -0.033,0.0866 c -0.0181,0.0476 -0.0598,0.28494 -0.0928,0.52731 -0.0661,0.48644 -0.0867,2.00178 -0.0338,2.48613 0.0232,0.21229 0.0158,0.34342 -0.0326,0.57826 -0.0557,0.27014 -0.0611,0.50756 -0.0496,2.14693 l 0.0129,1.84321 -0.34334,0.0251 c -0.188839,0.0138 -0.514108,0.0587 -0.722826,0.0996 -0.208718,0.041 -0.493334,0.0839 -0.632474,0.0955 -0.139148,0.0115 -0.403152,0.052 -0.586676,0.0902 -0.369806,0.0767 -0.451443,0.0797 -0.596963,0.0222 z"
       id="path8759" />
    <path
       style="fill:#0077b5;fill-opacity:1;stroke:#000000;stroke-width:0.30000001;stroke-miterlimit:4;stroke-dasharray:none;stroke-opacity:1"
       d="m 48.115441,183.94019 c -0.13459,-0.13816 -4.95725,-0.26853 -7.6475,-0.20673 -1.15591,0.0266 -1.48255,-0.0148 -2.09223,-0.2652 -0.39736,-0.16317 -0.79874,-0.2674 -0.89197,-0.23162 -0.11444,0.0439 -0.17144,-0.0734 -0.17547,-0.36122 -0.051,-3.64753 -0.1798,-7.27344 -0.28068,-7.90106 -0.10581,-0.65824 -0.0802,-0.9763 0.15039,-1.87088 0.29359,-1.13878 0.38706,-3.00156 0.20593,-4.10407 -0.10168,-0.61893 -0.1001,-0.62237 0.51545,-1.12677 0.58925,-0.48285 0.67645,-0.51055 1.91039,-0.60698 0.71112,-0.0556 1.41322,-0.13737 1.56022,-0.18178 0.147,-0.0444 0.59802,0.0308 1.00226,0.1671 0.65036,0.21929 1.05045,0.24037 3.4745,0.18305 1.50674,-0.0356 3.2206,-0.0597 3.8086,-0.0535 0.58799,0.006 1.77643,0.0134 2.64096,0.0159 1.50765,0.004 1.57646,0.0169 1.6835,0.30628 0.0621,0.16778 0.056,0.54166 -0.0136,0.84231 -0.0689,0.29738 -0.0795,0.90136 -0.0236,1.34242 0.0809,0.63801 0.22004,8.29579 0.18818,10.3567 -0.0407,2.63351 -0.0636,2.76842 -0.54533,3.21941 -0.33982,0.31811 -0.55757,0.41668 -0.85655,0.38775 -0.56046,-0.0542 -1.50523,-0.0328 -3.14042,0.0713 -0.77174,0.0491 -1.43462,0.057 -1.47307,0.0175 z m -5.87918,-2.02275 c 0.18245,-0.21983 0.31211,-6.92132 0.1526,-7.88726 l -0.0883,-0.53454 -1.3746,-0.009 c -0.761,-0.005 -1.41062,0.0494 -1.45529,0.12164 -0.0444,0.0718 -0.0967,1.95462 -0.11625,4.18403 -0.0322,3.67249 -0.0145,4.06575 0.18816,4.18402 0.37495,0.21877 2.50178,0.17221 2.69364,-0.059 z m 4.39362,-0.0129 c 0.0265,-0.0229 0.0689,-1.1425 0.0942,-2.488 0.0253,-1.3455 0.0487,-2.5065 0.0521,-2.58 0.003,-0.0735 0.22073,-0.30491 0.4831,-0.51425 0.6108,-0.48736 1.28288,-0.42048 1.50759,0.15002 0.0789,0.20033 0.16461,1.50135 0.19047,2.89115 0.0552,2.96736 -0.0524,2.80576 1.77488,2.66531 l 1.12089,-0.0862 -0.0772,-1.95168 c -0.0958,-2.42163 -0.10105,-2.83571 -0.048,-3.75574 0.0467,-0.80889 -0.17892,-1.39782 -0.78491,-2.04888 -0.48715,-0.52338 -1.12594,-0.76623 -2.22313,-0.84516 -0.89847,-0.0646 -0.96317,-0.0487 -1.63702,0.40343 -0.69485,0.46621 -0.70158,0.46768 -0.70158,0.15393 0,-0.2842 -0.0765,-0.32634 -0.74348,-0.40968 -0.85799,-0.1072 -1.76079,-0.0146 -1.97831,0.20293 -0.10472,0.10472 -0.14256,1.15254 -0.12466,3.45164 0.0324,4.15999 0.0967,4.70468 0.57465,4.86543 0.19969,0.0672 2.42879,-0.0251 2.5204,-0.10429 z m -5.27556,-9.2122 c 0.5696,-0.2703 1.15155,-1.18564 1.15155,-1.81127 0,-0.64406 -0.38506,-1.11479 -1.15124,-1.4074 -0.48669,-0.18587 -0.66592,-0.20188 -0.86537,-0.0773 -0.13836,0.0864 -0.36528,0.1571 -0.50428,0.1571 -0.34544,0 -0.48798,0.2134 -0.69605,1.04212 -0.16067,0.63995 -0.15403,0.75211 0.0691,1.16649 0.13579,0.25216 0.35045,0.49134 0.47701,0.53151 0.12656,0.0402 0.33757,0.19177 0.4689,0.33689 0.28665,0.31675 0.48821,0.32862 1.05034,0.0619 z"
       id="path8854" />
  </g>
</svg>
