<?xml version="1.0" encoding="UTF-8" standalone="no"?>
<svg
   xmlns:dc="http://purl.org/dc/elements/1.1/"
   xmlns:cc="http://creativecommons.org/ns#"
   xmlns:rdf="http://www.w3.org/1999/02/22-rdf-syntax-ns#"
   xmlns:svg="http://www.w3.org/2000/svg"
   xmlns="http://www.w3.org/2000/svg"
   id="svg8"
   version="1.1"
   viewBox="0 0 17.466028 17.197943"
   height="17.197943mm"
   width="17.466028mm">
  <defs
     id="defs2" />
  <metadata
     id="metadata5">
    <rdf:RDF>
      <cc:Work
         rdf:about="">
        <dc:format>image/svg+xml</dc:format>
        <dc:type
           rdf:resource="http://purl.org/dc/dcmitype/StillImage" />
        <dc:title></dc:title>
      </cc:Work>
    </rdf:RDF>
  </metadata>
  <g
     transform="translate(-36.819419,-166.91732)"
     id="layer1">
    <path
       id="path1088"
       d="m 130.2193,184.79621 c -0.6053,-0.0861 -1.46547,-0.21902 -1.91147,-0.29531 -0.44602,-0.0763 -2.60946,-0.17374 -4.80765,-0.21653 -2.03883,0.14118 -4.71378,-0.50418 -6.00687,-0.24552 -0.8189,0.27245 -1.22929,0.24954 -1.9539,-0.10691 -0.39618,-0.19489 -0.95622,-0.59024 -1.24455,-0.87856 -0.57687,-0.57687 -0.71248,-0.94053 -1.26929,-3.40372 -0.34614,-1.53129 -0.3731,-2.19687 -0.11789,-2.91056 0.0288,-0.74547 0.0575,-1.22584 0.18588,-2.39215 l 0.24044,-0.86425 0.0243,-1.40647 c 0.24701,-0.89077 0.74655,-1.66866 0.98983,-2.65957 0.32711,-1.33229 0.79191,-2.37452 1.07634,-2.41348 0.077,-0.0105 0.44457,-0.0236 0.81692,-0.029 1.24981,-0.0951 0.69163,-0.8219 2.00697,-0.47799 2.22697,0.58227 2.22539,0.58223 3.85119,0.0882 0.92895,-0.2823 1.02099,-0.28956 1.96939,-0.15541 0.79051,0.11182 1.42329,0.10988 3.08015,-0.009 2.61953,-0.18868 3.56681,-0.17291 4.84453,0.0806 l 1.01611,0.20164 0.71291,-0.31994 c 1.00427,-0.45069 1.47174,-0.47158 2.6719,-0.11943 1.76877,0.51899 2.53391,1.04192 2.93901,2.00866 0.0875,0.20894 0.3199,1.09504 0.51634,1.96912 0.74735,2.24942 0.56784,2.95337 0.84852,4.5555 -0.11644,0.65067 -0.13999,1.51234 -0.0902,3.30164 l 0.0674,2.42117 -0.36515,0.94035 c -0.65697,1.69182 -1.58905,2.70883 -2.48262,2.70883 -1.68082,0.0615 -0.88761,-0.14194 -2.96825,-0.004 -1.72744,0.18487 -2.63985,0.39679 -4.64046,0.63278 z m -5.35217,-5.77424 c 0.17205,-0.0903 0.7023,-0.45702 1.17831,-0.81484 0.66877,-0.50272 1.10376,-0.72507 1.91382,-0.97828 0.57659,-0.18023 1.2558,-0.43837 1.50938,-0.57365 0.63777,-0.34024 1.3983,-1.04016 1.26439,-1.16362 -0.0596,-0.0549 -0.3945,-0.19278 -0.74434,-0.30639 -0.49964,-0.16228 -0.83736,-0.39935 -1.57452,-1.10532 -0.76607,-0.73366 -1.14759,-0.99647 -2.07714,-1.43085 -0.62628,-0.29266 -1.30878,-0.66184 -1.51666,-0.8204 -0.44733,-0.3412 -0.96124,-0.37056 -1.32536,-0.0757 -0.24373,0.19737 -0.25148,0.2409 -0.10824,0.6082 0.10819,0.27741 0.16857,1.25141 0.20211,3.2599 l 0.0479,2.86429 0.39916,0.35047 c 0.46332,0.4068 0.42676,0.39861 0.83128,0.1862 z"
       style="fill:#ff0000;stroke:#000000;stroke-width:0.30000001;stroke-miterlimit:4;stroke-dasharray:none;stroke-opacity:1" />
    <path
       id="path8755"
       d="m 77.751066,185.32801 c 0,-0.0968 -0.124044,-0.42289 -0.275651,-0.72473 -0.274827,-0.54717 -0.275165,-0.55161 -0.112844,-1.48157 0.152905,-0.87601 0.150355,-0.96031 -0.04191,-1.38561 -0.246926,-0.5462 -0.445174,-1.24309 -0.446007,-1.56783 -4.34e-4,-0.17984 0.08639,-0.25668 0.35568,-0.31463 0.467767,-0.10066 1.641572,-0.63263 2.07163,-0.93886 0.187234,-0.13333 0.435309,-0.44429 0.551278,-0.69102 0.115967,-0.24673 0.376939,-0.65668 0.579933,-0.911 0.590046,-0.73919 0.849761,-1.56619 0.853205,-2.71684 0.0033,-1.11038 -0.182476,-1.93504 -0.738751,-3.27885 -0.366652,-0.88574 -0.36769,-0.89328 -0.220172,-1.6002 0.177906,-0.85253 0.112484,-1.27203 -0.233759,-1.4989 -0.232494,-0.15233 -0.331494,-0.15235 -0.998872,-2e-4 -1.038141,0.23667 -1.55044,0.47513 -1.693011,0.78803 -0.12409,0.27236 -0.19667,0.31092 -0.820951,0.4363 -0.339566,0.0682 -1.192543,-0.10919 -1.40058,-0.29126 -0.155311,-0.13592 -0.725838,-0.11403 -2.307676,0.0886 -1.944466,0.24904 -2.335399,0.18195 -3.01269,-0.51707 -0.287606,-0.29683 -0.595768,-0.53968 -0.684806,-0.53968 -0.288668,0 -0.901811,0.4879 -1.104895,0.87921 -0.171514,0.33048 -0.188306,0.54797 -0.125527,1.62594 l 0.07247,1.24441 -0.39139,0.32262 c -0.485024,0.3998 -0.618348,0.84946 -0.612856,2.06701 0.01,2.20814 0.304903,3.19527 1.27814,4.27774 0.730898,0.81294 1.604802,1.20367 2.692111,1.20367 1.231079,0 1.262116,0.0316 0.68221,0.69452 -0.270606,0.30934 -0.492011,0.62162 -0.492011,0.69397 0,0.32338 -0.91848,0.30057 -1.57537,-0.0391 -0.177222,-0.0916 -0.635578,-0.43245 -1.018568,-0.75735 -1.11101,-0.9425 -1.844468,-1.38738 -2.310854,-1.40163 -0.384411,-0.0117 -0.414423,0.0104 -0.445449,0.32914 -0.02938,0.30179 0.06351,0.43092 0.794806,1.10475 0.789966,0.72791 0.828147,0.78534 0.829688,1.24788 0.0025,0.77492 0.177387,1.00032 0.986203,1.27164 0.819214,0.27481 1.395742,0.30795 2.185556,0.12564 0.386859,-0.0893 0.594119,-0.0939 0.672985,-0.0151 0.171842,0.17184 0.136715,1.48907 -0.05174,1.9401 -0.176488,0.4224 -0.296447,0.48436 -0.488866,0.2525 -0.143948,-0.17344 -0.843866,-0.49536 -2.099845,-0.96578 -0.808988,-0.303 -1.022601,-0.44256 -1.620248,-1.05852 -1.355318,-1.39684 -2.675202,-3.69771 -3.272974,-5.70558 -0.376923,-1.26605 -0.476063,-3.33172 -0.213488,-4.44822 0.241734,-1.02788 0.709564,-1.96451 1.37444,-2.75172 0.305552,-0.36177 0.726819,-1.01634 0.936146,-1.45459 0.276238,-0.57833 0.460497,-0.82719 0.671996,-0.9076 0.16027,-0.0609 0.691431,-0.48777 1.180356,-0.94853 1.622873,-1.52937 2.387987,-1.84722 4.835578,-2.00883 0.844137,-0.0557 1.855458,-0.17488 2.24738,-0.26478 0.990743,-0.22726 1.715003,-0.20902 2.302195,0.058 0.271331,0.12337 1.035987,0.37182 1.699238,0.55211 1.921953,0.52243 2.221377,0.7678 3.77377,3.09248 0.436268,0.65331 0.963586,1.37641 1.171816,1.60689 0.288332,0.31916 0.416161,0.59792 0.536129,1.1692 0.258564,1.23124 0.409401,3.28691 0.356759,4.86205 l -0.04944,1.47911 -0.562012,1.30712 c -0.947811,2.20444 -1.471653,2.83759 -3.938149,4.75987 -0.769179,0.59947 -1.568516,1.26794 -1.776305,1.4855 -0.413523,0.43297 -0.554043,0.48867 -0.554043,0.21963 z"
       style="fill:#000000;stroke:#000000;stroke-width:0.32888499;stroke-miterlimit:4;stroke-dasharray:none;stroke-opacity:1" />
    <path
       id="path8759"
       d="m 95.543453,186.06439 c -0.07291,-0.0288 -0.132525,-0.0835 -0.132525,-0.12171 0,-0.0381 -0.04715,-0.14558 -0.104717,-0.23878 -0.08888,-0.14379 -0.103883,-0.23584 -0.09918,-0.60805 0.0064,-0.23743 -0.01704,-0.67857 -0.02341,-1.14913 -0.03593,-0.90368 -0.0629,-1.24179 -0.06063,-1.69637 -0.07936,-0.53919 -0.05328,-1.27528 -0.08252,-2.50833 -0.02309,-0.97493 -0.0151,-1.20442 0.05103,-1.46159 0.06152,-0.2393 0.07831,-0.54578 0.07792,-1.42157 -2.75e-4,-0.61407 -0.01349,-1.19479 -0.02931,-1.29048 l -0.02874,-0.174 -0.609192,-0.0274 c -0.342213,-0.0153 -0.904849,-0.0837 -1.283827,-0.156 -0.686218,-0.13086 -1.312008,-0.17446 -1.503427,-0.1047 -0.101594,0.037 -0.103295,0.033 -0.04125,-0.0964 0.105787,-0.22077 0.317384,-1.30815 0.298985,-2.48458 l -0.01711,-1.09623 v 0 c 0.312447,-0.006 0.183685,0.15644 0.243688,0.1715 0.05999,0.0151 0.324715,-0.0184 0.588243,-0.0743 0.773167,-0.16414 0.782654,-0.16435 1.275017,-0.0294 0.493273,0.13521 0.885499,0.16215 0.947796,0.0651 0.07097,-0.11061 0.155499,-0.49143 0.157711,-0.71078 0.0016,-0.1218 -0.02591,-0.37402 -0.02511,-0.6529 l -0.0082,-0.37884 0.02373,-0.30351 c 0,0 0.0549,-0.54905 0.05829,-1.03189 8.07e-4,-0.12251 0.05595,-0.38926 0.122373,-0.59279 0.09663,-0.29604 0.129098,-0.52672 0.162341,-1.15349 0.0465,-0.87765 0.07589,-0.97739 0.466222,-1.58305 0.298258,-0.46283 0.679658,-0.91368 0.889057,-1.05093 0.09273,-0.0607 0.260344,-0.17319 0.372398,-0.24975 0.112054,-0.0766 0.32567,-0.18117 0.474708,-0.23244 0.149038,-0.0512 0.339264,-0.13426 0.422718,-0.18439 0.09947,-0.0598 0.286718,-0.10085 0.54319,-0.1194 0.261467,-0.0189 0.445468,-0.0599 0.554164,-0.12361 0.266322,-0.15607 0.760089,-0.21522 1.511714,-0.18111 0.61027,0.0277 1.71303,0.12889 2.22104,0.20383 0.31118,0.0459 0.32513,0.0685 0.20715,0.33518 -0.0929,0.21008 -0.10107,0.29012 -0.0755,0.74342 0.0157,0.2794 0.0726,0.8116 0.1264,1.18265 0.0538,0.37105 0.0981,0.7804 0.0985,0.90966 l 8.1e-4,0.23503 -0.253,-0.0302 c -0.81428,-0.0969 -0.78077,-0.098 -1.00506,0.031 -0.11643,0.0669 -0.52612,0.21129 -0.91043,0.3208 -0.79893,0.22769 -1.256455,0.43177 -1.390744,0.62037 -0.1266,0.17779 -0.189712,0.43409 -0.248889,1.01079 -0.02749,0.268 -0.08225,0.59144 -0.121669,0.71877 -0.08086,0.26129 -0.196771,1.81402 -0.149455,2.00252 0.06663,0.26543 0.640302,0.3156 2.628347,0.22987 0.77403,-0.0334 1.41735,-0.0506 1.42961,-0.0384 0.0123,0.0123 -0.0766,0.22121 -0.19739,0.46436 -0.13981,0.28137 -0.25445,0.6038 -0.31534,0.88697 -0.0526,0.2447 -0.12835,0.54526 -0.16826,0.66791 -0.0641,0.19705 -0.0646,0.31483 -0.004,1.01196 0.0378,0.43393 0.0648,0.79348 0.0601,0.79902 -0.005,0.005 -0.67632,0.0252 -1.49245,0.0438 l -1.483885,0.0338 -0.04396,0.11553 c -0.02417,0.0635 -0.07979,0.37992 -0.123744,0.70307 -0.08813,0.64859 -0.115604,2.66904 -0.04503,3.31485 0.03091,0.28305 0.02107,0.45789 -0.04342,0.77101 -0.07422,0.36018 -0.0815,0.67674 -0.0661,2.86257 l 0.01722,2.45762 -0.457788,0.0335 c -0.251787,0.0184 -0.685479,0.0782 -0.963769,0.13276 -0.278291,0.0547 -0.657779,0.11193 -0.843299,0.1273 -0.18553,0.0153 -0.537536,0.0694 -0.782234,0.12022 -0.493075,0.10224 -0.601924,0.10631 -0.795951,0.0296 z"
       style="fill:#4464a8;fill-opacity:1;stroke:#000000;stroke-width:0.30000001;stroke-miterlimit:4;stroke-dasharray:none;stroke-opacity:1" />
    <path
       id="path8854"
       d="m 48.115441,183.94019 c -0.13459,-0.13816 -4.95725,-0.26853 -7.6475,-0.20673 -1.15591,0.0266 -1.48255,-0.0148 -2.09223,-0.2652 -0.39736,-0.16317 -0.79874,-0.2674 -0.89197,-0.23162 -0.11444,0.0439 -0.17144,-0.0734 -0.17547,-0.36122 -0.051,-3.64753 -0.1798,-7.27344 -0.28068,-7.90106 -0.10581,-0.65824 -0.0802,-0.9763 0.15039,-1.87088 0.29359,-1.13878 0.38706,-3.00156 0.20593,-4.10407 -0.10168,-0.61893 -0.1001,-0.62237 0.51545,-1.12677 0.58925,-0.48285 0.67645,-0.51055 1.91039,-0.60698 0.71112,-0.0556 1.41322,-0.13737 1.56022,-0.18178 0.147,-0.0444 0.59802,0.0308 1.00226,0.1671 0.65036,0.21929 1.05045,0.24037 3.4745,0.18305 1.50674,-0.0356 3.2206,-0.0597 3.8086,-0.0535 0.58799,0.006 1.77643,0.0134 2.64096,0.0159 1.50765,0.004 1.57646,0.0169 1.6835,0.30628 0.0621,0.16778 0.056,0.54166 -0.0136,0.84231 -0.0689,0.29738 -0.0795,0.90136 -0.0236,1.34242 0.0809,0.63801 0.22004,8.29579 0.18818,10.3567 -0.0407,2.63351 -0.0636,2.76842 -0.54533,3.21941 -0.33982,0.31811 -0.55757,0.41668 -0.85655,0.38775 -0.56046,-0.0542 -1.50523,-0.0328 -3.14042,0.0713 -0.77174,0.0491 -1.43462,0.057 -1.47307,0.0175 z m -5.87918,-2.02275 c 0.18245,-0.21983 0.31211,-6.92132 0.1526,-7.88726 l -0.0883,-0.53454 -1.3746,-0.009 c -0.761,-0.005 -1.41062,0.0494 -1.45529,0.12164 -0.0444,0.0718 -0.0967,1.95462 -0.11625,4.18403 -0.0322,3.67249 -0.0145,4.06575 0.18816,4.18402 0.37495,0.21877 2.50178,0.17221 2.69364,-0.059 z m 4.39362,-0.0129 c 0.0265,-0.0229 0.0689,-1.1425 0.0942,-2.488 0.0253,-1.3455 0.0487,-2.5065 0.0521,-2.58 0.003,-0.0735 0.22073,-0.30491 0.4831,-0.51425 0.6108,-0.48736 1.28288,-0.42048 1.50759,0.15002 0.0789,0.20033 0.16461,1.50135 0.19047,2.89115 0.0552,2.96736 -0.0524,2.80576 1.77488,2.66531 l 1.12089,-0.0862 -0.0772,-1.95168 c -0.0958,-2.42163 -0.10105,-2.83571 -0.048,-3.75574 0.0467,-0.80889 -0.17892,-1.39782 -0.78491,-2.04888 -0.48715,-0.52338 -1.12594,-0.76623 -2.22313,-0.84516 -0.89847,-0.0646 -0.96317,-0.0487 -1.63702,0.40343 -0.69485,0.46621 -0.70158,0.46768 -0.70158,0.15393 0,-0.2842 -0.0765,-0.32634 -0.74348,-0.40968 -0.85799,-0.1072 -1.76079,-0.0146 -1.97831,0.20293 -0.10472,0.10472 -0.14256,1.15254 -0.12466,3.45164 0.0324,4.15999 0.0967,4.70468 0.57465,4.86543 0.19969,0.0672 2.42879,-0.0251 2.5204,-0.10429 z m -5.27556,-9.2122 c 0.5696,-0.2703 1.15155,-1.18564 1.15155,-1.81127 0,-0.64406 -0.38506,-1.11479 -1.15124,-1.4074 -0.48669,-0.18587 -0.66592,-0.20188 -0.86537,-0.0773 -0.13836,0.0864 -0.36528,0.1571 -0.50428,0.1571 -0.34544,0 -0.48798,0.2134 -0.69605,1.04212 -0.16067,0.63995 -0.15403,0.75211 0.0691,1.16649 0.13579,0.25216 0.35045,0.49134 0.47701,0.53151 0.12656,0.0402 0.33757,0.19177 0.4689,0.33689 0.28665,0.31675 0.48821,0.32862 1.05034,0.0619 z"
       style="fill:#0077b5;fill-opacity:1;stroke:#000000;stroke-width:0.30000001;stroke-miterlimit:4;stroke-dasharray:none;stroke-opacity:1" />
  </g>
</svg>
