<?xml version="1.0" encoding="UTF-8" standalone="no"?>
<svg
   xmlns:dc="http://purl.org/dc/elements/1.1/"
   xmlns:cc="http://creativecommons.org/ns#"
   xmlns:rdf="http://www.w3.org/1999/02/22-rdf-syntax-ns#"
   xmlns:svg="http://www.w3.org/2000/svg"
   xmlns="http://www.w3.org/2000/svg"
   id="svg8"
   version="1.1"
   viewBox="0 0 22.601263 19.173727"
   height="19.173727mm"
   width="22.601263mm">
  <defs
     id="defs2" />
  <metadata
     id="metadata5">
    <rdf:RDF>
      <cc:Work
         rdf:about="">
        <dc:format>image/svg+xml</dc:format>
        <dc:type
           rdf:resource="http://purl.org/dc/dcmitype/StillImage" />
        <dc:title></dc:title>
      </cc:Work>
    </rdf:RDF>
  </metadata>
  <g
     transform="translate(-73.679205,-181.24398)"
     id="layer1">
    <path
       id="path30"
       d="m 74.414062,199.67113 c -0.543518,-1.24638 -0.303602,-2.75955 -0.47247,-4.11049 -0.249753,-1.99802 -0.105039,-3.97888 0.14174,-5.95313 0.16655,-1.33239 0.206328,-2.65537 0.425223,-3.96875 0.07535,-0.45209 0.220292,-3.85831 0.377976,-4.01599 0.500829,-0.50083 2.414357,2.90416 2.645833,3.21279 0.633629,0.84484 1.636406,1.56426 2.456847,2.22061 1.079145,0.86332 1.891908,2.06159 2.976562,2.92932 0.476584,0.38127 1.197732,0.67801 1.606399,1.08668 0.119806,0.11981 0.786921,0.89769 1.039434,0.89769 0.114655,0 0.0309,-0.23533 0.09449,-0.33073 0.209039,-0.31356 0.488878,-0.58337 0.755951,-0.85044 1.821093,-1.82109 2.861276,-3.34414 5.24442,-4.53572 1.286285,-0.64314 2.456141,-1.27473 3.307292,-2.4096 0.178774,-0.23836 0.412176,-0.50666 0.614212,-0.7087 0.149823,-0.14982 0.684352,-0.42522 0.472471,-0.42522 -0.03511,0 -0.26221,0.57166 -0.283482,0.61421 -0.393084,0.78617 -0.850448,2.03933 -0.850448,2.92931 0,3.22758 -0.350684,5.92055 0.425225,9.02419 0.268521,1.07408 -0.668792,2.05687 -0.330729,3.07105 0.08033,0.241 0.615844,1.46303 0.330729,1.74814 -0.20896,0.20896 -1.534083,0 -1.842635,0 -1.313116,0 -2.611532,-0.0472 -3.921503,-0.0472 -0.388194,0 -0.797671,-0.10203 -1.181177,-0.0472 -2.130017,0.30429 -4.9657,0.23623 -7.181545,0.23623 -0.444201,0 -3.131836,0.0742 -3.354539,0 -0.22951,-0.0765 -1.506341,-0.17509 -1.748141,-0.0945 -0.329134,0.10971 -0.717355,0.14174 -1.086681,0.14174 -0.414983,0 -0.789699,-0.29361 -0.661458,-0.61421 z"
       style="fill:none;stroke:#000000;stroke-width:0.26458332px;stroke-linecap:butt;stroke-linejoin:miter;stroke-opacity:1" />
    <path
       id="path32"
       d="m 75.359002,181.57552 c 0.225973,-0.11509 0.492877,-0.0698 0.708705,-0.14174 0.45361,-0.15121 1.202021,0.0542 1.6064,0.18899 0.685376,0.22845 2.176547,-0.28189 2.740326,0 0.452766,0.22638 1.854306,0.16297 2.456847,0.28348 0.326665,0.0653 0.806548,-0.0477 1.133927,-0.0945 1.25435,-0.17919 2.715572,0.0423 3.921504,0.28349 1.212582,0.24251 2.691339,-0.42566 3.82701,-0.14174 0.738118,0.18452 1.294638,0.19374 2.031622,0.37798 0.739894,0.18497 1.478185,0.28347 2.220608,0.28347"
       style="fill:none;stroke:#000000;stroke-width:0.26458332px;stroke-linecap:butt;stroke-linejoin:miter;stroke-opacity:1" />
  </g>
</svg>
