<?xml version="1.0" encoding="UTF-8" standalone="no"?>
<svg
   xmlns:dc="http://purl.org/dc/elements/1.1/"
   xmlns:cc="http://creativecommons.org/ns#"
   xmlns:rdf="http://www.w3.org/1999/02/22-rdf-syntax-ns#"
   xmlns:svg="http://www.w3.org/2000/svg"
   xmlns="http://www.w3.org/2000/svg"
   xmlns:sodipodi="http://sodipodi.sourceforge.net/DTD/sodipodi-0.dtd"
   xmlns:inkscape="http://www.inkscape.org/namespaces/inkscape"
   id="svg8"
   version="1.1"
   viewBox="0 0 105 108"
   height="108mm"
   width="105mm"
   sodipodi:docname="Thats_me.svg"
   inkscape:version="0.92.5 (2060ec1f9f, 2020-04-08)">
  <sodipodi:namedview
     pagecolor="#ffffff"
     bordercolor="#666666"
     borderopacity="1"
     objecttolerance="10"
     gridtolerance="10"
     guidetolerance="10"
     inkscape:pageopacity="0"
     inkscape:pageshadow="2"
     inkscape:window-width="952"
     inkscape:window-height="1046"
     id="namedview19"
     showgrid="false"
     inkscape:zoom="1.1563272"
     inkscape:cx="97.477496"
     inkscape:cy="248.20431"
     inkscape:window-x="962"
     inkscape:window-y="4"
     inkscape:window-maximized="0"
     inkscape:current-layer="layer1" />
  <defs
     id="defs2" />
  <metadata
     id="metadata5">
    <rdf:RDF>
      <cc:Work
         rdf:about="">
        <dc:format>image/svg+xml</dc:format>
        <dc:type
           rdf:resource="http://purl.org/dc/dcmitype/StillImage" />
        <dc:title />
      </cc:Work>
    </rdf:RDF>
  </metadata>
  <g
     transform="translate(0,-189)"
     id="layer1">
    <path
       id="path60"
       d="m 11.305082,201.8229 c -3.0461273,5.5191 -2.2714221,17.38581 5.27821,10.69388"
       style="fill:none;stroke:#000000;stroke-width:0.79375;stroke-linecap:butt;stroke-linejoin:miter;stroke-opacity:1;stroke-miterlimit:4;stroke-dasharray:none"
       inkscape:connector-curvature="0" />
    <path
       id="path62"
       d="m 6.9065703,208.77383 c 2.625306,-0.38091 5.9782117,-0.92039 8.4200077,-0.40091"
       style="fill:none;stroke:#000000;stroke-width:0.79375;stroke-linecap:butt;stroke-linejoin:miter;stroke-opacity:1;stroke-miterlimit:4;stroke-dasharray:none"
       inkscape:connector-curvature="0" />
    <path
       id="path88"
       d="m 22.364199,214.25449 c -0.04195,-0.17822 -0.08378,-0.35651 -0.125661,-0.53475 0,-0.1337 0.02069,-0.26922 0,-0.40103 -0.02182,-0.13895 -0.103903,-0.26196 -0.125692,-0.40097 -0.09497,-0.60565 0,-1.50608 0,-2.13876 0,-0.44567 -0.04612,-0.89401 0,-1.33684 0.01902,-0.18264 0.106609,-0.35213 0.125692,-0.53467 0.04623,-0.44273 0,-0.89103 0,-1.33664 0,-0.62391 0,-1.24762 0,-1.87137 0,-1.23342 0.04066,0.16889 -0.125692,-1.06953 -0.01769,-0.13235 0.01778,-0.26867 0,-0.40097 -0.02436,-0.18182 -0.101228,-0.35279 -0.125653,-0.53472 -0.01772,-0.13241 0.02452,-0.26997 0,-0.40103 -0.163143,-0.86771 -0.125681,0.29784 -0.125681,-0.53474 0,-0.0445 0.02958,-0.16519 0,-0.13369 -0.238536,0.25375 -0.09525,0.77812 -0.125667,1.06946 -0.02357,0.22586 -0.102076,0.4426 -0.125674,0.66836 -0.04168,0.39856 -0.03759,0.80393 0,1.20322 -0.0077,0.41955 0.208686,0.79468 0.251341,1.20292 0.02309,0.22144 -0.02088,0.44679 0,0.66842 0.0213,0.22606 0.106332,0.44211 0.125681,0.66844 0.02275,0.26622 -0.02089,0.53551 0,0.80187 0.02121,0.27002 0.106128,0.53178 0.125653,0.80201 0.04511,0.62199 -0.04501,1.24953 0,1.87146 0.160119,2.21396 0.125692,-0.4489 0.125692,1.4705 0,0.22272 -0.04112,0.44982 0,0.6683 0.03394,0.18016 0.0177,0.67818 0.125661,0.53475 0.374192,-0.49755 0.336904,-1.28366 0.502696,-1.87135 0.133395,-0.4732 0.427396,-1.04305 0.628347,-1.47051 0.509917,-1.08482 0.800196,-1.94478 1.75942,-2.67334 0.268934,-0.2044 0.641542,-0.49781 1.00536,-0.40109 0.577636,0.15362 0.785808,1.2382 0.879704,1.73757 0.06008,0.31974 0.22838,1.17735 0.251341,1.4705 0.02092,0.26636 -0.02275,0.53576 0,0.80194 0.166751,1.95117 0.125689,-0.60231 0.125689,1.33686 0,0.31186 -0.05744,0.62988 0,0.93575 0.163115,0.86771 0.125652,-0.29794 0.125652,0.53468 0,0.0891 0,0.17826 0,0.26745 0,0.0445 0.04191,0.13364 0,0.13364 -0.04197,0 0,-0.0891 0,-0.13364"
       style="fill:none;stroke:#000000;stroke-width:0.79375;stroke-linecap:butt;stroke-linejoin:miter;stroke-opacity:1;stroke-miterlimit:4;stroke-dasharray:none"
       inkscape:connector-curvature="0" />
    <path
       id="path104"
       d="m 34.554362,208.23929 c -1.804569,0.12764 -3.601082,3.90868 -2.639107,5.61415 1.274493,2.25926 3.311939,-3.67785 3.518819,-4.4113 0.134566,-0.47715 0.251348,-1.96847 0.251348,-1.47024 0,2.21597 -0.952454,7.85838 2.764759,5.88154"
       style="fill:none;stroke:#000000;stroke-width:0.79375;stroke-linecap:butt;stroke-linejoin:miter;stroke-opacity:1;stroke-miterlimit:4;stroke-dasharray:none"
       inkscape:connector-curvature="0" />
    <path
       id="path106"
       d="m 41.968997,201.8229 c -1.482269,2.85517 -4.026522,10.92445 -0.754019,13.10005 1.473314,0.97919 4.891063,-0.44428 4.398499,-2.53981"
       style="fill:none;stroke:#000000;stroke-width:0.79375;stroke-linecap:butt;stroke-linejoin:miter;stroke-opacity:1;stroke-miterlimit:4;stroke-dasharray:none"
       inkscape:connector-curvature="0" />
    <path
       id="path108"
       d="m 38.073183,207.57083 c 2.306031,0.77791 5.550582,-0.70554 7.540294,0"
       style="fill:none;stroke:#000000;stroke-width:0.79375;stroke-linecap:butt;stroke-linejoin:miter;stroke-opacity:1;stroke-miterlimit:4;stroke-dasharray:none"
       inkscape:connector-curvature="0" />
    <path
       id="path110"
       d="m 49.383643,199.68409 c -0.08667,0.54548 -1.506827,6.01272 -0.377022,3.60912"
       style="fill:none;stroke:#000000;stroke-width:0.79375;stroke-linecap:butt;stroke-linejoin:miter;stroke-opacity:1;stroke-miterlimit:4;stroke-dasharray:none"
       inkscape:connector-curvature="0" />
    <path
       id="path112"
       d="m 54.159165,204.09532 c -1.175827,-1.33653 -3.998876,1.77388 -3.267469,2.94081 0.954071,1.52223 3.214462,1.2888 4.147165,3.07439 0.430449,0.8242 0.455257,1.89158 0.377021,2.80722 -0.27945,3.26946 -4.124396,2.1449 -6.157921,1.60409"
       style="fill:none;stroke:#000000;stroke-width:0.79375;stroke-linecap:butt;stroke-linejoin:miter;stroke-opacity:1;stroke-miterlimit:4;stroke-dasharray:none"
       inkscape:connector-curvature="0" />
    <path
       id="path114"
       d="m 63.835895,214.6555 c -0.491505,-1.38086 -0.169808,-2.83278 0,-4.27762 0.01429,-0.12066 -0.0096,-2.40598 0,-2.40598 0.08137,0 -0.240588,1.2678 -0.251345,1.33654 -0.190979,1.21889 -0.125676,2.49231 -0.125676,3.743 0,0.007 -0.04565,1.11801 0.125676,0.93569 0.613033,-0.65212 1.624073,-4.14398 2.764773,-4.14398 0.646023,0 0.589911,2.34615 0.628356,2.67363 0.04675,0.39787 -0.168597,1.56171 0,1.20296 0.541405,-1.15166 1.744382,-4.4113 3.267473,-4.4113 1.494605,0 0.502695,5.08553 0.502695,5.8818"
       style="fill:none;stroke:#000000;stroke-width:0.79375;stroke-linecap:butt;stroke-linejoin:miter;stroke-opacity:1;stroke-miterlimit:4;stroke-dasharray:none"
       inkscape:connector-curvature="0" />
    <path
       id="path116"
       d="m 73.512619,211.44724 c 0.955056,0.28472 2.164283,0.48018 3.141799,0.1337 3.021148,-1.07117 1.051193,-4.38485 -1.633731,-2.00517 -0.984499,0.87273 -1.593331,1.72833 -1.382385,3.07469 0.424611,2.7099 4.179504,1.79589 5.906564,1.33667"
       style="fill:none;stroke:#000000;stroke-width:0.79375;stroke-linecap:butt;stroke-linejoin:miter;stroke-opacity:1;stroke-miterlimit:4;stroke-dasharray:none"
       inkscape:connector-curvature="0" />
    <path
       id="path118"
       d="m 82.560993,206.76874 c -0.549408,0.93858 1.512402,5.07485 2.513431,4.01024 0.539295,-0.57375 0.871787,-1.32281 1.256722,-2.00515 0.413207,-0.73245 0.801724,-1.61764 0.628354,-2.53971 -0.442352,-2.35262 -3.41012,-1.68364 -3.895827,-0.13369"
       style="fill:none;stroke:#000000;stroke-width:0.79375;stroke-linecap:butt;stroke-linejoin:miter;stroke-opacity:1;stroke-miterlimit:4;stroke-dasharray:none"
       inkscape:connector-curvature="0" />
    <path
       id="path120"
       d="m 85.702783,215.32388 c -0.572063,0.21123 -1.138371,-0.15314 -1.382389,-0.80205 -0.735505,-1.95579 1.666151,-3.90675 2.387756,-1.60409 0.41229,1.31562 -1.824843,4.57133 -2.639104,2.40614"
       style="fill:none;stroke:#000000;stroke-width:0.79375;stroke-linecap:butt;stroke-linejoin:miter;stroke-opacity:1;stroke-miterlimit:4;stroke-dasharray:none"
       inkscape:connector-curvature="0" />
    <path
       id="path138"
       d="m 44.972921,227.49997 c -1.004364,7.94766 1.075882,21.09209 6.372606,27.09831 2.726165,3.09133 6.644135,4.4032 10.35548,6.02185 4.414935,1.92551 20.516082,5.09648 24.162799,0.50182 3.111285,-3.92004 -3.531522,-8.8715 -6.372608,-10.78914 -1.06339,-0.71776 -3.451826,-2.99126 -3.451826,-1.75638 0,2.96453 10.490621,7.65501 12.214161,9.28368 0.29256,0.27646 -0.207114,2.53925 -0.265526,2.76002 -1.165045,4.40368 -5.170816,8.12187 -6.107079,12.54552 -0.218587,1.03277 0.04495,1.31632 0.796577,0.2509"
       style="fill:none;stroke:#000000;stroke-width:0.79375;stroke-linecap:butt;stroke-linejoin:miter;stroke-opacity:1;stroke-miterlimit:4;stroke-dasharray:none" />
  </g>
</svg>
