<svg width="204" height="91" viewBox="0 0 204 91" fill="none" xmlns="http://www.w3.org/2000/svg">
<path d="M17.438 23.2754L63.9888 23.2754L40.7134 63.5895L17.438 23.2754Z" fill="#EC4C4C"/>
<rect x="64" y="23" width="43" height="42" fill="#F8FC74"/>
<circle cx="129.5" cy="43.5" r="22.5" fill="#8DCAFF"/>
<path d="M14.488 69.08C15.208 69.08 15.808 69.056 16.288 69.008V69.488C15.488 69.68 14.856 70.376 14.392 71.576L8.752 86.12H8.56H8.368L2.512 71.024C2.128 70.032 1.576 69.52 0.856 69.488V69.008C1.496 69.056 2.352 69.08 3.424 69.08C4.8 69.08 5.824 69.056 6.496 69.008V69.488C5.888 69.52 5.448 69.6 5.176 69.728C4.92 69.84 4.792 70.056 4.792 70.376C4.792 70.648 4.888 71.024 5.08 71.504L9.424 83.048L13.336 72.896C13.656 72.032 13.816 71.376 13.816 70.928C13.816 70.432 13.64 70.072 13.288 69.848C12.952 69.624 12.432 69.504 11.728 69.488V69.008C12.64 69.056 13.56 69.08 14.488 69.08ZM25.7995 83.12C25.5115 84 24.9675 84.76 24.1675 85.4C23.3835 86.024 22.4315 86.336 21.3115 86.336C20.1755 86.336 19.1915 86.08 18.3595 85.568C17.5275 85.04 16.8875 84.312 16.4395 83.384C16.0075 82.44 15.7915 81.352 15.7915 80.12C15.7915 78.728 16.0155 77.52 16.4635 76.496C16.9115 75.472 17.5435 74.688 18.3595 74.144C19.1755 73.584 20.1275 73.304 21.2155 73.304C22.6555 73.304 23.7595 73.744 24.5275 74.624C25.3115 75.488 25.7035 76.808 25.7035 78.584H18.1915C18.1435 79.032 18.1195 79.544 18.1195 80.12C18.1195 81.176 18.2875 82.096 18.6235 82.88C18.9755 83.664 19.4315 84.272 19.9915 84.704C20.5675 85.12 21.1675 85.328 21.7915 85.328C22.5595 85.328 23.2395 85.144 23.8315 84.776C24.4235 84.408 24.9195 83.792 25.3195 82.928L25.7995 83.12ZM21.1195 73.76C20.3675 73.76 19.7195 74.128 19.1755 74.864C18.6315 75.6 18.2955 76.688 18.1675 78.128H23.3995C23.4315 76.88 23.2475 75.84 22.8475 75.008C22.4635 74.176 21.8875 73.76 21.1195 73.76ZM34.9881 73.304C35.6281 73.304 36.1481 73.488 36.5481 73.856C36.9641 74.224 37.1721 74.672 37.1721 75.2C37.1721 75.616 37.0441 75.976 36.7881 76.28C36.5481 76.568 36.2201 76.712 35.8041 76.712C35.4521 76.712 35.1481 76.6 34.8921 76.376C34.6521 76.152 34.5321 75.848 34.5321 75.464C34.5321 74.936 34.8041 74.504 35.3481 74.168C35.2361 74.008 35.0681 73.928 34.8441 73.928C34.2201 73.928 33.6521 74.176 33.1401 74.672C32.6281 75.152 32.2281 75.744 31.9401 76.448C31.6521 77.152 31.5081 77.816 31.5081 78.44V83.528C31.5081 84.264 31.7161 84.776 32.1321 85.064C32.5641 85.352 33.2041 85.496 34.0521 85.496V86L33.4761 85.976C31.8441 85.928 30.8041 85.904 30.3561 85.904C29.9401 85.904 28.9961 85.936 27.5241 86V85.496C28.1961 85.496 28.6681 85.376 28.9401 85.136C29.2121 84.88 29.3481 84.424 29.3481 83.768V76.256C29.3481 75.52 29.2121 74.984 28.9401 74.648C28.6681 74.312 28.1961 74.144 27.5241 74.144V73.64C28.0361 73.688 28.5321 73.712 29.0121 73.712C30.0201 73.712 30.8521 73.6 31.5081 73.376V76.376C31.7961 75.576 32.2521 74.864 32.8761 74.24C33.5161 73.616 34.2201 73.304 34.9881 73.304ZM47.5476 73.712C48.2516 73.712 48.8596 73.688 49.3716 73.64V74.12C49.0516 74.152 48.7636 74.296 48.5076 74.552C48.2676 74.808 48.0356 75.224 47.8116 75.8L43.8756 86.12L43.0596 88.208C42.7556 88.992 42.4116 89.552 42.0276 89.888C41.7876 90.112 41.4996 90.272 41.1636 90.368C40.8276 90.464 40.4916 90.512 40.1556 90.512C39.6756 90.512 39.2836 90.384 38.9796 90.128C38.6756 89.872 38.5236 89.52 38.5236 89.072C38.5236 88.688 38.6356 88.376 38.8596 88.136C39.0836 87.912 39.3956 87.8 39.7956 87.8C40.1476 87.8 40.4356 87.896 40.6596 88.088C40.8996 88.296 41.0196 88.576 41.0196 88.928C41.0196 89.408 40.8036 89.768 40.3716 90.008C40.4036 90.024 40.4516 90.032 40.5156 90.032C41.3956 90.032 42.0756 89.408 42.5556 88.16L43.3956 85.976L39.0516 75.488C38.7796 74.944 38.5076 74.584 38.2356 74.408C37.9636 74.232 37.6916 74.144 37.4196 74.144V73.64C38.1076 73.736 38.8916 73.784 39.7716 73.784C40.5716 73.784 41.6116 73.736 42.8916 73.64V74.144C42.3156 74.144 41.8916 74.192 41.6196 74.288C41.3636 74.384 41.2356 74.616 41.2356 74.984C41.2356 75.32 41.3316 75.712 41.5236 76.16L44.4036 83.312L47.0676 76.376C47.2436 75.896 47.3316 75.528 47.3316 75.272C47.3316 74.904 47.1876 74.632 46.8996 74.456C46.6116 74.28 46.1556 74.168 45.5316 74.12V73.64C46.3796 73.688 47.0516 73.712 47.5476 73.712ZM74.0811 83.768C74.0811 84.424 74.2171 84.88 74.4891 85.136C74.7611 85.376 75.2331 85.496 75.9051 85.496V86C74.4331 85.936 73.4731 85.904 73.0251 85.904C72.5771 85.904 71.6811 85.936 70.3371 86V85.496C70.9291 85.496 71.3371 85.376 71.5611 85.136C71.8011 84.88 71.9211 84.424 71.9211 83.768V76.832C71.9211 76.224 71.8811 75.736 71.8011 75.368C71.7371 74.984 71.5691 74.672 71.2971 74.432C71.0411 74.192 70.6411 74.072 70.0971 74.072C69.4891 74.072 68.9371 74.264 68.4411 74.648C67.9451 75.032 67.5531 75.56 67.2651 76.232C66.9931 76.888 66.8571 77.616 66.8571 78.416V83.768C66.8571 84.424 66.9931 84.88 67.2651 85.136C67.5371 85.376 68.0091 85.496 68.6811 85.496V86C67.2091 85.936 66.2491 85.904 65.8011 85.904C65.3531 85.904 64.4571 85.936 63.1131 86V85.496C63.7051 85.496 64.1131 85.376 64.3371 85.136C64.5771 84.88 64.6971 84.424 64.6971 83.768V76.832C64.6971 76.224 64.6571 75.736 64.5771 75.368C64.5131 74.984 64.3451 74.672 64.0731 74.432C63.8171 74.192 63.4171 74.072 62.8731 74.072C62.2651 74.072 61.7131 74.264 61.2171 74.648C60.7211 75.032 60.3291 75.56 60.0411 76.232C59.7691 76.904 59.6331 77.64 59.6331 78.44V83.768C59.6331 84.424 59.7451 84.88 59.9691 85.136C60.2091 85.376 60.6251 85.496 61.2171 85.496V86C59.8731 85.936 58.9771 85.904 58.5291 85.904C58.0811 85.904 57.1211 85.936 55.6491 86V85.496C56.3211 85.496 56.7931 85.376 57.0651 85.136C57.3371 84.88 57.4731 84.424 57.4731 83.768V76.256C57.4731 75.52 57.3371 74.984 57.0651 74.648C56.7931 74.312 56.3211 74.144 55.6491 74.144V73.64C56.1611 73.688 56.6571 73.712 57.1371 73.712C58.1451 73.712 58.9771 73.6 59.6331 73.376V76.208C60.0171 75.216 60.5611 74.488 61.2651 74.024C61.9691 73.544 62.7371 73.304 63.5691 73.304C64.6571 73.304 65.4891 73.608 66.0651 74.216C66.4651 74.632 66.7131 75.272 66.8091 76.136C67.2091 75.128 67.7611 74.408 68.4651 73.976C69.1691 73.528 69.9451 73.304 70.7931 73.304C71.8811 73.304 72.7131 73.608 73.2891 74.216C73.5771 74.536 73.7771 74.944 73.8891 75.44C74.0171 75.936 74.0811 76.576 74.0811 77.36V83.768ZM80.1698 86.168C79.1618 86.168 78.4098 85.92 77.9138 85.424C77.4338 84.912 77.1938 84.208 77.1938 83.312C77.1938 82.592 77.3858 82 77.7698 81.536C78.1698 81.072 78.6338 80.704 79.1618 80.432C79.7058 80.16 80.4178 79.872 81.2978 79.568C82.1938 79.264 82.8578 78.984 83.2898 78.728C83.7218 78.472 83.9378 78.128 83.9378 77.696V76.208C83.9378 75.28 83.7378 74.648 83.3378 74.312C82.9538 73.96 82.4098 73.784 81.7058 73.784C80.5858 73.784 79.7938 74.072 79.3298 74.648C79.6498 74.728 79.9138 74.896 80.1218 75.152C80.3458 75.408 80.4578 75.728 80.4578 76.112C80.4578 76.512 80.3298 76.832 80.0738 77.072C79.8178 77.296 79.4898 77.408 79.0898 77.408C78.6418 77.408 78.3058 77.272 78.0818 77C77.8578 76.712 77.7458 76.368 77.7458 75.968C77.7458 75.584 77.8338 75.264 78.0098 75.008C78.2018 74.752 78.4818 74.496 78.8498 74.24C79.2338 73.968 79.7218 73.744 80.3138 73.568C80.9058 73.392 81.5538 73.304 82.2578 73.304C83.5058 73.304 84.4498 73.6 85.0898 74.192C85.4898 74.56 85.7538 75.008 85.8818 75.536C86.0258 76.048 86.0978 76.728 86.0978 77.576V84.248C86.0978 84.648 86.1538 84.936 86.2658 85.112C86.3778 85.288 86.5698 85.376 86.8418 85.376C87.0338 85.376 87.2098 85.336 87.3698 85.256C87.5458 85.16 87.7298 85.032 87.9218 84.872L88.1858 85.28C87.7698 85.6 87.4098 85.832 87.1058 85.976C86.8178 86.104 86.4498 86.168 86.0018 86.168C85.2338 86.168 84.6978 85.976 84.3938 85.592C84.0898 85.208 83.9378 84.688 83.9378 84.032C83.4578 84.832 82.9058 85.392 82.2818 85.712C81.6578 86.016 80.9538 86.168 80.1698 86.168ZM81.2258 85.208C82.2818 85.208 83.1858 84.6 83.9378 83.384V78.68C83.7938 78.904 83.5938 79.088 83.3378 79.232C83.0818 79.376 82.6898 79.568 82.1618 79.808C81.5538 80.064 81.0578 80.312 80.6738 80.552C80.3058 80.776 79.9858 81.088 79.7138 81.488C79.4418 81.888 79.3058 82.4 79.3058 83.024C79.3058 83.744 79.4818 84.288 79.8338 84.656C80.1858 85.024 80.6498 85.208 81.2258 85.208ZM96.9709 73.304C98.0909 73.304 98.9389 73.608 99.5149 74.216C99.8189 74.536 100.035 74.936 100.163 75.416C100.291 75.896 100.355 76.544 100.355 77.36V83.768C100.355 84.424 100.491 84.88 100.763 85.136C101.035 85.376 101.507 85.496 102.179 85.496V86C100.707 85.936 99.7469 85.904 99.2989 85.904C98.8509 85.904 97.9549 85.936 96.6109 86V85.496C97.2029 85.496 97.6109 85.376 97.8349 85.136C98.0749 84.88 98.1949 84.424 98.1949 83.768V76.832C98.1949 75.936 98.0669 75.256 97.8109 74.792C97.5549 74.312 97.0349 74.072 96.2509 74.072C95.5949 74.072 95.0109 74.264 94.4989 74.648C93.9869 75.032 93.5869 75.56 93.2989 76.232C93.0269 76.888 92.8909 77.624 92.8909 78.44V83.768C92.8909 84.424 93.0029 84.88 93.2269 85.136C93.4669 85.376 93.8829 85.496 94.4749 85.496V86C93.1309 85.936 92.2349 85.904 91.7869 85.904C91.3389 85.904 90.3789 85.936 88.9069 86V85.496C89.5789 85.496 90.0509 85.376 90.3229 85.136C90.5949 84.88 90.7309 84.424 90.7309 83.768V76.256C90.7309 75.52 90.5949 74.984 90.3229 74.648C90.0509 74.312 89.5789 74.144 88.9069 74.144V73.64C89.4189 73.688 89.9149 73.712 90.3949 73.712C91.4029 73.712 92.2349 73.6 92.8909 73.376V76.208C93.2909 75.184 93.8429 74.448 94.5469 74C95.2669 73.536 96.0749 73.304 96.9709 73.304ZM112.352 73.712C113.056 73.712 113.664 73.688 114.176 73.64V74.12C113.856 74.152 113.568 74.296 113.312 74.552C113.072 74.808 112.84 75.224 112.616 75.8L108.68 86.12L107.864 88.208C107.56 88.992 107.216 89.552 106.832 89.888C106.592 90.112 106.304 90.272 105.968 90.368C105.632 90.464 105.296 90.512 104.96 90.512C104.48 90.512 104.088 90.384 103.784 90.128C103.48 89.872 103.328 89.52 103.328 89.072C103.328 88.688 103.44 88.376 103.664 88.136C103.888 87.912 104.2 87.8 104.6 87.8C104.952 87.8 105.24 87.896 105.464 88.088C105.704 88.296 105.824 88.576 105.824 88.928C105.824 89.408 105.608 89.768 105.176 90.008C105.208 90.024 105.256 90.032 105.32 90.032C106.2 90.032 106.88 89.408 107.36 88.16L108.2 85.976L103.856 75.488C103.584 74.944 103.312 74.584 103.04 74.408C102.768 74.232 102.496 74.144 102.224 74.144V73.64C102.912 73.736 103.696 73.784 104.576 73.784C105.376 73.784 106.416 73.736 107.696 73.64V74.144C107.12 74.144 106.696 74.192 106.424 74.288C106.168 74.384 106.04 74.616 106.04 74.984C106.04 75.32 106.136 75.712 106.328 76.16L109.208 83.312L111.872 76.376C112.048 75.896 112.136 75.528 112.136 75.272C112.136 74.904 111.992 74.632 111.704 74.456C111.416 74.28 110.96 74.168 110.336 74.12V73.64C111.184 73.688 111.856 73.712 112.352 73.712ZM131.062 75.8C130.774 75.8 130.526 75.704 130.318 75.512C130.126 75.32 130.03 75.04 130.03 74.672C130.03 74.352 130.11 73.984 130.27 73.568C129.854 73.744 129.526 73.944 129.286 74.168C129.046 74.376 128.83 74.64 128.638 74.96C129.006 75.52 129.19 76.232 129.19 77.096C129.19 78.36 128.806 79.312 128.038 79.952C127.27 80.576 126.254 80.888 124.99 80.888H124.966C124.438 81.192 124.038 81.472 123.766 81.728C123.494 81.984 123.358 82.272 123.358 82.592C123.358 83.104 123.742 83.36 124.51 83.36H127.51C128.598 83.36 129.494 83.6 130.198 84.08C130.918 84.544 131.278 85.248 131.278 86.192C131.278 86.96 131.03 87.672 130.534 88.328C130.038 88.984 129.31 89.512 128.35 89.912C127.39 90.312 126.23 90.512 124.87 90.512C123.478 90.512 122.31 90.296 121.366 89.864C120.438 89.448 119.974 88.824 119.974 87.992C119.974 87.448 120.19 86.976 120.622 86.576C121.07 86.176 121.686 85.864 122.47 85.64L122.614 86.024C122.262 86.136 121.982 86.36 121.774 86.696C121.566 87.032 121.462 87.408 121.462 87.824C121.462 88.56 121.79 89.12 122.446 89.504C123.118 89.904 124.014 90.104 125.134 90.104C126.366 90.104 127.422 89.864 128.302 89.384C129.182 88.92 129.622 88.192 129.622 87.2C129.622 86.624 129.414 86.176 128.998 85.856C128.598 85.536 127.878 85.376 126.838 85.376H125.062C124.118 85.376 123.358 85.256 122.782 85.016C122.222 84.776 121.942 84.296 121.942 83.576C121.942 83.08 122.118 82.608 122.47 82.16C122.838 81.712 123.438 81.272 124.27 80.84C123.214 80.728 122.366 80.36 121.726 79.736C121.102 79.112 120.79 78.232 120.79 77.096C120.79 75.832 121.174 74.888 121.942 74.264C122.71 73.624 123.726 73.304 124.99 73.304C126.494 73.304 127.606 73.72 128.326 74.552C128.63 74.12 129.014 73.768 129.478 73.496C129.942 73.208 130.406 73.064 130.87 73.064C131.286 73.064 131.622 73.184 131.878 73.424C132.134 73.664 132.262 74.008 132.262 74.456C132.262 74.904 132.134 75.24 131.878 75.464C131.638 75.688 131.366 75.8 131.062 75.8ZM124.99 80.456C125.63 80.456 126.11 80.208 126.43 79.712C126.766 79.2 126.934 78.328 126.934 77.096C126.934 75.864 126.766 75 126.43 74.504C126.11 73.992 125.63 73.736 124.99 73.736C124.35 73.736 123.862 73.992 123.526 74.504C123.206 75 123.046 75.864 123.046 77.096C123.046 78.328 123.206 79.2 123.526 79.712C123.862 80.208 124.35 80.456 124.99 80.456ZM136.115 86.168C135.107 86.168 134.355 85.92 133.859 85.424C133.379 84.912 133.139 84.208 133.139 83.312C133.139 82.592 133.331 82 133.715 81.536C134.115 81.072 134.579 80.704 135.107 80.432C135.651 80.16 136.363 79.872 137.243 79.568C138.139 79.264 138.803 78.984 139.235 78.728C139.667 78.472 139.883 78.128 139.883 77.696V76.208C139.883 75.28 139.683 74.648 139.283 74.312C138.899 73.96 138.355 73.784 137.651 73.784C136.531 73.784 135.739 74.072 135.275 74.648C135.595 74.728 135.859 74.896 136.067 75.152C136.291 75.408 136.403 75.728 136.403 76.112C136.403 76.512 136.275 76.832 136.019 77.072C135.763 77.296 135.435 77.408 135.035 77.408C134.587 77.408 134.251 77.272 134.027 77C133.803 76.712 133.691 76.368 133.691 75.968C133.691 75.584 133.779 75.264 133.955 75.008C134.147 74.752 134.427 74.496 134.795 74.24C135.179 73.968 135.667 73.744 136.259 73.568C136.851 73.392 137.499 73.304 138.203 73.304C139.451 73.304 140.395 73.6 141.035 74.192C141.435 74.56 141.699 75.008 141.827 75.536C141.971 76.048 142.043 76.728 142.043 77.576V84.248C142.043 84.648 142.099 84.936 142.211 85.112C142.323 85.288 142.515 85.376 142.787 85.376C142.979 85.376 143.155 85.336 143.315 85.256C143.491 85.16 143.675 85.032 143.867 84.872L144.131 85.28C143.715 85.6 143.355 85.832 143.051 85.976C142.763 86.104 142.395 86.168 141.947 86.168C141.179 86.168 140.643 85.976 140.339 85.592C140.035 85.208 139.883 84.688 139.883 84.032C139.403 84.832 138.851 85.392 138.227 85.712C137.603 86.016 136.899 86.168 136.115 86.168ZM137.171 85.208C138.227 85.208 139.131 84.6 139.883 83.384V78.68C139.739 78.904 139.539 79.088 139.283 79.232C139.027 79.376 138.635 79.568 138.107 79.808C137.499 80.064 137.003 80.312 136.619 80.552C136.251 80.776 135.931 81.088 135.659 81.488C135.387 81.888 135.251 82.4 135.251 83.024C135.251 83.744 135.427 84.288 135.779 84.656C136.131 85.024 136.595 85.208 137.171 85.208ZM163.284 83.768C163.284 84.424 163.42 84.88 163.692 85.136C163.964 85.376 164.436 85.496 165.108 85.496V86C163.636 85.936 162.676 85.904 162.228 85.904C161.78 85.904 160.884 85.936 159.54 86V85.496C160.132 85.496 160.54 85.376 160.764 85.136C161.004 84.88 161.124 84.424 161.124 83.768V76.832C161.124 76.224 161.084 75.736 161.004 75.368C160.94 74.984 160.772 74.672 160.5 74.432C160.244 74.192 159.844 74.072 159.3 74.072C158.692 74.072 158.14 74.264 157.644 74.648C157.148 75.032 156.756 75.56 156.468 76.232C156.196 76.888 156.06 77.616 156.06 78.416V83.768C156.06 84.424 156.196 84.88 156.468 85.136C156.74 85.376 157.212 85.496 157.884 85.496V86C156.412 85.936 155.452 85.904 155.004 85.904C154.556 85.904 153.66 85.936 152.316 86V85.496C152.908 85.496 153.316 85.376 153.54 85.136C153.78 84.88 153.9 84.424 153.9 83.768V76.832C153.9 76.224 153.86 75.736 153.78 75.368C153.716 74.984 153.548 74.672 153.276 74.432C153.02 74.192 152.62 74.072 152.076 74.072C151.468 74.072 150.916 74.264 150.42 74.648C149.924 75.032 149.532 75.56 149.244 76.232C148.972 76.904 148.836 77.64 148.836 78.44V83.768C148.836 84.424 148.948 84.88 149.172 85.136C149.412 85.376 149.828 85.496 150.42 85.496V86C149.076 85.936 148.18 85.904 147.732 85.904C147.284 85.904 146.324 85.936 144.852 86V85.496C145.524 85.496 145.996 85.376 146.268 85.136C146.54 84.88 146.676 84.424 146.676 83.768V76.256C146.676 75.52 146.54 74.984 146.268 74.648C145.996 74.312 145.524 74.144 144.852 74.144V73.64C145.364 73.688 145.86 73.712 146.34 73.712C147.348 73.712 148.18 73.6 148.836 73.376V76.208C149.22 75.216 149.764 74.488 150.468 74.024C151.172 73.544 151.94 73.304 152.772 73.304C153.86 73.304 154.692 73.608 155.268 74.216C155.668 74.632 155.916 75.272 156.012 76.136C156.412 75.128 156.964 74.408 157.668 73.976C158.372 73.528 159.148 73.304 159.996 73.304C161.084 73.304 161.916 73.608 162.492 74.216C162.78 74.536 162.98 74.944 163.092 75.44C163.22 75.936 163.284 76.576 163.284 77.36V83.768ZM176.573 83.12C176.285 84 175.741 84.76 174.941 85.4C174.157 86.024 173.205 86.336 172.085 86.336C170.949 86.336 169.965 86.08 169.133 85.568C168.301 85.04 167.661 84.312 167.213 83.384C166.781 82.44 166.565 81.352 166.565 80.12C166.565 78.728 166.789 77.52 167.237 76.496C167.685 75.472 168.317 74.688 169.133 74.144C169.949 73.584 170.901 73.304 171.989 73.304C173.429 73.304 174.533 73.744 175.301 74.624C176.085 75.488 176.477 76.808 176.477 78.584H168.965C168.917 79.032 168.893 79.544 168.893 80.12C168.893 81.176 169.061 82.096 169.397 82.88C169.749 83.664 170.205 84.272 170.765 84.704C171.341 85.12 171.941 85.328 172.565 85.328C173.333 85.328 174.013 85.144 174.605 84.776C175.197 84.408 175.693 83.792 176.093 82.928L176.573 83.12ZM171.893 73.76C171.141 73.76 170.493 74.128 169.949 74.864C169.405 75.6 169.069 76.688 168.941 78.128H174.173C174.205 76.88 174.021 75.84 173.621 75.008C173.237 74.176 172.661 73.76 171.893 73.76ZM182.594 73.304C183.17 73.304 183.682 73.392 184.13 73.568C184.578 73.744 184.938 73.952 185.21 74.192C185.386 74.32 185.53 74.384 185.642 74.384C185.93 74.384 186.106 74.032 186.17 73.328H186.722C186.658 74.112 186.626 75.472 186.626 77.408H186.074C185.898 76.352 185.554 75.48 185.042 74.792C184.546 74.104 183.802 73.76 182.81 73.76C182.234 73.76 181.762 73.928 181.394 74.264C181.026 74.584 180.842 75.032 180.842 75.608C180.842 76.168 181.034 76.64 181.418 77.024C181.802 77.392 182.418 77.84 183.266 78.368C183.41 78.448 183.626 78.584 183.914 78.776C184.65 79.256 185.242 79.68 185.69 80.048C186.138 80.416 186.498 80.84 186.77 81.32C187.058 81.8 187.202 82.352 187.202 82.976C187.202 84.032 186.802 84.856 186.002 85.448C185.218 86.04 184.25 86.336 183.098 86.336C182.378 86.336 181.746 86.224 181.202 86C180.85 85.824 180.522 85.608 180.218 85.352C180.154 85.288 180.082 85.256 180.002 85.256C179.89 85.256 179.786 85.336 179.69 85.496C179.61 85.656 179.546 85.88 179.498 86.168H178.946C179.01 85.256 179.042 83.656 179.042 81.368H179.594C179.77 82.872 180.09 84 180.554 84.752C181.018 85.488 181.81 85.856 182.93 85.856C183.49 85.856 183.986 85.672 184.418 85.304C184.85 84.936 185.066 84.36 185.066 83.576C185.066 82.952 184.85 82.424 184.418 81.992C184.002 81.56 183.314 81.04 182.354 80.432C181.57 79.936 180.962 79.528 180.53 79.208C180.114 78.888 179.762 78.496 179.474 78.032C179.186 77.568 179.042 77.024 179.042 76.4C179.042 75.392 179.378 74.624 180.05 74.096C180.722 73.568 181.57 73.304 182.594 73.304Z" fill="black"/>
</svg>
