<svg width="376" height="236" viewBox="0 0 376 236" fill="none" xmlns="http://www.w3.org/2000/svg">
<g filter="url(#filter0_ddi)">
<circle cx="174" cy="114" r="114" fill="#EEEDE5"/>
<path d="M288 114C288 134.011 282.732 153.67 272.727 171C262.721 188.33 248.33 202.721 231 212.727L202.5 163.363C211.165 158.361 218.361 151.165 223.363 142.5C228.366 133.835 231 124.006 231 114H288Z" fill="#1B998B"/>
<path d="M117.011 15.2665C134.343 5.26296 154.002 -0.00228482 174.013 7.43561e-07C194.024 0.0022863 213.682 5.27202 231.011 15.2795L202.506 64.6398C193.841 59.636 184.012 57.0011 174.007 57C164.001 56.9989 154.171 59.6315 145.506 64.6333L117.011 15.2665Z" fill="#084C61"/>
<path d="M231 15.2731C248.33 25.2787 262.721 39.6698 272.727 57C282.732 74.3302 288 93.9888 288 114L231 114C231 103.994 228.366 94.1651 223.363 85.5C218.361 76.8349 211.165 69.6393 202.5 64.6366L231 15.2731Z" fill="#DB3A34"/>
<path d="M60 114C60 93.9888 65.2675 74.3302 75.2731 57C85.2787 39.6698 99.6698 25.2787 117 15.2731L145.5 64.6366C136.835 69.6394 129.639 76.8349 124.637 85.5C119.634 94.1651 117 103.994 117 114H60Z" fill="#1B998B"/>
<path d="M231 212.727C213.67 222.732 194.011 228 174 228C153.989 228 134.33 222.732 117 212.727L145.5 163.363C154.165 168.366 163.994 171 174 171C184.006 171 193.835 168.366 202.5 163.363L231 212.727Z" fill="#084C61"/>
<path d="M117 212.727C99.6698 202.721 85.2787 188.33 75.2731 171C65.2675 153.67 60 134.011 60 114L117 114C117 124.006 119.634 133.835 124.637 142.5C129.639 151.165 136.835 158.361 145.5 163.363L117 212.727Z" fill="#DB3A34"/>
<path d="M168.788 40.2077C171.57 37.1047 176.43 37.1047 179.212 40.2077L216.876 82.2178C220.917 86.7255 217.718 93.8905 211.664 93.8905H136.336C130.282 93.8905 127.083 86.7254 131.124 82.2178L168.788 40.2077Z" fill="#EEEDE5"/>
</g>
<g filter="url(#filter1_d)">
<path d="M23.2256 118.829L24.4561 127.267L26.2578 119.664L38.9141 75.0156H46.0332L58.3818 119.664L60.1396 127.398L61.502 118.785L71.4336 75.0156H79.915L64.4023 139H56.7119L43.5283 92.374L42.5176 87.4961L41.5068 92.374L27.8398 139H20.1494L4.68066 75.0156H13.1182L23.2256 118.829ZM96.1748 97.208C99.7783 92.7842 104.466 90.5723 110.237 90.5723C120.286 90.5723 125.354 96.2412 125.442 107.579V139H117.312V107.535C117.283 104.107 116.492 101.573 114.939 99.9326C113.416 98.292 111.028 97.4717 107.776 97.4717C105.14 97.4717 102.825 98.1748 100.833 99.5811C98.8408 100.987 97.2881 102.833 96.1748 105.118V139H88.0449V71.5H96.1748V97.208ZM135.462 114.786C135.462 110.128 136.37 105.938 138.187 102.218C140.032 98.4971 142.581 95.626 145.833 93.6045C149.114 91.583 152.85 90.5723 157.039 90.5723C163.514 90.5723 168.743 92.8135 172.728 97.2959C176.741 101.778 178.748 107.74 178.748 115.182V115.753C178.748 120.382 177.854 124.542 176.067 128.233C174.31 131.896 171.775 134.752 168.465 136.803C165.184 138.854 161.404 139.879 157.127 139.879C150.682 139.879 145.452 137.638 141.438 133.155C137.454 128.673 135.462 122.74 135.462 115.357V114.786ZM143.636 115.753C143.636 121.026 144.852 125.26 147.283 128.453C149.744 131.646 153.025 133.243 157.127 133.243C161.258 133.243 164.539 131.632 166.971 128.409C169.402 125.157 170.618 120.616 170.618 114.786C170.618 109.571 169.373 105.353 166.883 102.13C164.422 98.8779 161.141 97.252 157.039 97.252C153.025 97.252 149.788 98.8486 147.327 102.042C144.866 105.235 143.636 109.806 143.636 115.753ZM201.116 75.0156L222.034 127.223L242.952 75.0156H253.895V139H245.457V114.083L246.248 87.1885L225.242 139H218.782L197.82 87.3203L198.655 114.083V139H190.218V75.0156H201.116ZM287.249 139.879C280.804 139.879 275.56 137.77 271.517 133.551C267.474 129.303 265.452 123.634 265.452 116.544V115.05C265.452 110.333 266.346 106.129 268.133 102.438C269.949 98.7168 272.469 95.8164 275.691 93.7363C278.943 91.627 282.459 90.5723 286.238 90.5723C292.42 90.5723 297.225 92.6084 300.652 96.6807C304.08 100.753 305.794 106.583 305.794 114.171V117.555H273.582C273.699 122.242 275.062 126.036 277.669 128.937C280.306 131.808 283.646 133.243 287.688 133.243C290.56 133.243 292.991 132.657 294.983 131.485C296.976 130.313 298.719 128.761 300.213 126.827L305.179 130.694C301.194 136.817 295.218 139.879 287.249 139.879ZM286.238 97.252C282.957 97.252 280.203 98.4531 277.977 100.855C275.75 103.229 274.373 106.568 273.846 110.875H297.664V110.26C297.43 106.129 296.316 102.936 294.324 100.68C292.332 98.3945 289.637 97.252 286.238 97.252ZM324.339 120.938H317L316.429 75.0156H324.954L324.339 120.938ZM316.121 134.913C316.121 133.595 316.517 132.496 317.308 131.617C318.128 130.709 319.329 130.255 320.911 130.255C322.493 130.255 323.694 130.709 324.515 131.617C325.335 132.496 325.745 133.595 325.745 134.913C325.745 136.231 325.335 137.33 324.515 138.209C323.694 139.059 322.493 139.483 320.911 139.483C319.329 139.483 318.128 139.059 317.308 138.209C316.517 137.33 316.121 136.231 316.121 134.913ZM347.981 120.982C348.04 117.496 348.436 114.742 349.168 112.721C349.9 110.699 351.395 108.458 353.65 105.997L359.407 100.064C361.868 97.2812 363.099 94.293 363.099 91.0996C363.099 88.0234 362.293 85.6211 360.682 83.8926C359.07 82.1348 356.727 81.2559 353.65 81.2559C350.662 81.2559 348.26 82.0469 346.443 83.6289C344.627 85.2109 343.719 87.335 343.719 90.001H335.589C335.647 85.2549 337.332 81.4316 340.643 78.5312C343.982 75.6016 348.318 74.1367 353.65 74.1367C359.188 74.1367 363.494 75.6309 366.57 78.6191C369.676 81.5781 371.229 85.6504 371.229 90.8359C371.229 95.9629 368.855 101.017 364.109 105.997L359.319 110.743C357.181 113.116 356.111 116.529 356.111 120.982H347.981ZM347.63 134.913C347.63 133.595 348.025 132.496 348.816 131.617C349.637 130.709 350.838 130.255 352.42 130.255C354.002 130.255 355.203 130.709 356.023 131.617C356.844 132.496 357.254 133.595 357.254 134.913C357.254 136.231 356.844 137.33 356.023 138.209C355.203 139.059 354.002 139.483 352.42 139.483C350.838 139.483 349.637 139.059 348.816 138.209C348.025 137.33 347.63 136.231 347.63 134.913Z" fill="#084C61"/>
</g>
<defs>
<filter id="filter0_ddi" x="56" y="0" width="236" height="236" filterUnits="userSpaceOnUse" color-interpolation-filters="sRGB">
<feFlood flood-opacity="0" result="BackgroundImageFix"/>
<feColorMatrix in="SourceAlpha" type="matrix" values="0 0 0 0 0 0 0 0 0 0 0 0 0 0 0 0 0 0 127 0"/>
<feOffset dy="4"/>
<feGaussianBlur stdDeviation="2"/>
<feColorMatrix type="matrix" values="0 0 0 0 0 0 0 0 0 0 0 0 0 0 0 0 0 0 0.25 0"/>
<feBlend mode="normal" in2="BackgroundImageFix" result="effect1_dropShadow"/>
<feColorMatrix in="SourceAlpha" type="matrix" values="0 0 0 0 0 0 0 0 0 0 0 0 0 0 0 0 0 0 127 0"/>
<feOffset dy="4"/>
<feGaussianBlur stdDeviation="2"/>
<feColorMatrix type="matrix" values="0 0 0 0 0 0 0 0 0 0 0 0 0 0 0 0 0 0 0.25 0"/>
<feBlend mode="normal" in2="effect1_dropShadow" result="effect2_dropShadow"/>
<feBlend mode="normal" in="SourceGraphic" in2="effect2_dropShadow" result="shape"/>
<feColorMatrix in="SourceAlpha" type="matrix" values="0 0 0 0 0 0 0 0 0 0 0 0 0 0 0 0 0 0 127 0" result="hardAlpha"/>
<feOffset dx="4" dy="4"/>
<feGaussianBlur stdDeviation="2"/>
<feComposite in2="hardAlpha" operator="arithmetic" k2="-1" k3="1"/>
<feColorMatrix type="matrix" values="0 0 0 0 1 0 0 0 0 1 0 0 0 0 1 0 0 0 0.25 0"/>
<feBlend mode="normal" in2="shape" result="effect3_innerShadow"/>
</filter>
<filter id="filter1_d" x="0.680664" y="71.5" width="374.548" height="76.3789" filterUnits="userSpaceOnUse" color-interpolation-filters="sRGB">
<feFlood flood-opacity="0" result="BackgroundImageFix"/>
<feColorMatrix in="SourceAlpha" type="matrix" values="0 0 0 0 0 0 0 0 0 0 0 0 0 0 0 0 0 0 127 0"/>
<feOffset dy="4"/>
<feGaussianBlur stdDeviation="2"/>
<feColorMatrix type="matrix" values="0 0 0 0 0 0 0 0 0 0 0 0 0 0 0 0 0 0 0.25 0"/>
<feBlend mode="normal" in2="BackgroundImageFix" result="effect1_dropShadow"/>
<feBlend mode="normal" in="SourceGraphic" in2="effect1_dropShadow" result="shape"/>
</filter>
</defs>
</svg>
